<svg width="158" height="38" viewBox="0 0 158 38" fill="none" xmlns="http://www.w3.org/2000/svg">
<g clip-path="url(#clip0)">
<path d="M29.2266 2.39062L30.5613 3.07501L31.6813 0.890625H29.2266V2.39062ZM22.1484 16.1953L20.8193 16.8906L22.1618 19.4569L23.4832 16.8797L22.1484 16.1953ZM18.7031 9.60938L17.372 8.91789L17.0115 9.6118L17.374 10.3047L18.7031 9.60938ZM22.4531 2.39062V0.890625H21.542L21.122 1.69914L22.4531 2.39062ZM9.91406 2.39062L11.2339 1.6779L10.8088 0.890625H9.91406V2.39062ZM11.1797 4.73438L12.5174 4.05574L12.5087 4.03858L12.4995 4.02165L11.1797 4.73438ZM19.3125 20.7656H20.8125V20.4069L20.6502 20.087L19.3125 20.7656ZM19.3125 36V37.5H20.8125V36H19.3125ZM12.8906 36H11.3906V37.5H12.8906V36ZM12.8906 21.3984H14.3906V21.0315L14.2213 20.706L12.8906 21.3984ZM3 2.39062V0.890625H0.528563L1.66936 3.08302L3 2.39062ZM27.8918 1.70624L20.8137 15.5109L23.4832 16.8797L30.5613 3.07501L27.8918 1.70624ZM23.4776 15.5L20.0322 8.91407L17.374 10.3047L20.8193 16.8906L23.4776 15.5ZM20.0342 10.3009L23.7842 3.08211L21.122 1.69914L17.372 8.91789L20.0342 10.3009ZM22.4531 3.89062H29.2266V0.890625H22.4531V3.89062ZM8.5942 3.10335L9.85983 5.4471L12.4995 4.02165L11.2339 1.6779L8.5942 3.10335ZM9.84198 5.41301L17.9748 21.4443L20.6502 20.087L12.5174 4.05574L9.84198 5.41301ZM17.8125 20.7656V36H20.8125V20.7656H17.8125ZM19.3125 34.5H12.8906V37.5H19.3125V34.5ZM14.3906 36V21.3984H11.3906V36H14.3906ZM14.2213 20.706L4.33064 1.69823L1.66936 3.08302L11.56 22.0908L14.2213 20.706ZM3 3.89062H9.91406V0.890625H3V3.89062ZM52.9556 2.39062V0.890625H51.4556V2.39062H52.9556ZM59.2134 2.39062H60.7134V0.890625H59.2134V2.39062ZM58.2291 28.5L56.8548 27.8988L56.8518 27.9056L58.2291 28.5ZM55.5806 32.3906L54.5274 31.3225L54.52 31.33L55.5806 32.3906ZM51.6666 35.0391L52.2609 36.4163L52.2678 36.4133L51.6666 35.0391ZM42.0806 35.0391L41.4741 36.411L41.4828 36.4148L41.4915 36.4185L42.0806 35.0391ZM35.5416 28.5L34.1621 29.0891L34.1658 29.0979L34.1697 29.1065L35.5416 28.5ZM34.5806 2.39062V0.890625H33.0806V2.39062H34.5806ZM40.8384 2.39062H42.3384V0.890625H40.8384V2.39062ZM41.3072 26.2031L39.927 26.7905L39.9322 26.8028L39.9377 26.815L41.3072 26.2031ZM52.4634 26.2031L51.0939 25.5912L51.0885 25.6035L51.0832 25.6158L52.4634 26.2031ZM52.9556 3.89062H59.2134V0.890625H52.9556V3.89062ZM57.7134 2.39062V23.6953H60.7134V2.39062H57.7134ZM57.7134 23.6953C57.7134 25.2 57.4248 26.596 56.8548 27.8988L59.6033 29.1012C60.3458 27.404 60.7134 25.5969 60.7134 23.6953H57.7134ZM56.8518 27.9056C56.2859 29.2169 55.5117 30.352 54.5274 31.3226L56.6338 33.4587C57.8996 32.2105 58.891 30.7518 59.6063 29.0944L56.8518 27.9056ZM54.52 31.33C53.5486 32.3014 52.4016 33.0802 51.0653 33.6648L52.2678 36.4133C53.9316 35.6854 55.3939 34.6986 56.6413 33.4513L54.52 31.33ZM51.0722 33.6618C49.7855 34.2172 48.3951 34.5 46.8853 34.5V37.5C48.7817 37.5 50.5789 37.1422 52.2609 36.4163L51.0722 33.6618ZM46.8853 34.5C45.3756 34.5 43.9753 34.2172 42.6698 33.6596L41.4915 36.4185C43.1859 37.1422 44.9888 37.5 46.8853 37.5V34.5ZM42.6872 33.6672C41.3661 33.0831 40.2246 32.3039 39.2507 31.33L37.1293 33.4513C38.3741 34.6961 39.8264 35.6825 41.4741 36.411L42.6872 33.6672ZM39.2507 31.33C38.2767 30.356 37.4975 29.2145 36.9135 27.8935L34.1697 29.1065C34.8981 30.7543 35.8846 32.2065 37.1293 33.4513L39.2507 31.33ZM36.921 27.9109C36.3634 26.6053 36.0806 25.2051 36.0806 23.6953H33.0806C33.0806 25.5918 33.4384 27.3947 34.1621 29.0891L36.921 27.9109ZM36.0806 23.6953V2.39062H33.0806V23.6953H36.0806ZM34.5806 3.89062H40.8384V0.890625H34.5806V3.89062ZM39.3384 2.39062V23.8359H42.3384V2.39062H39.3384ZM39.3384 23.8359C39.3384 24.8698 39.531 25.8599 39.927 26.7905L42.6874 25.6158C42.4584 25.0776 42.3384 24.4896 42.3384 23.8359H39.3384ZM39.9377 26.815C40.3375 27.7098 40.8775 28.5041 41.559 29.1857L43.6803 27.0643C43.2681 26.6521 42.9332 26.1652 42.6767 25.5912L39.9377 26.815ZM41.559 29.1857C42.2461 29.8727 43.0488 30.409 43.9542 30.7943L45.1289 28.0338C44.5655 27.7941 44.087 27.471 43.6803 27.0643L41.559 29.1857ZM43.9542 30.7943C44.8813 31.1888 45.8631 31.3828 46.8853 31.3828V28.3828C46.2513 28.3828 45.6705 28.2643 45.1289 28.0338L43.9542 30.7943ZM46.8853 31.3828C47.9192 31.3828 48.9092 31.1903 49.8398 30.7943L48.6652 28.0338C48.127 28.2628 47.539 28.3828 46.8853 28.3828V31.3828ZM49.8398 30.7943C50.7452 30.409 51.548 29.8727 52.235 29.1857L50.1137 27.0643C49.7071 27.471 49.2285 27.7941 48.6652 28.0338L49.8398 30.7943ZM52.235 29.1857C52.9221 28.4986 53.4584 27.6959 53.8437 26.7905L51.0832 25.6158C50.8435 26.1791 50.5204 26.6577 50.1137 27.0643L52.235 29.1857ZM53.833 26.815C54.2513 25.8787 54.4556 24.88 54.4556 23.8359H51.4556C51.4556 24.4794 51.3318 25.0588 51.0939 25.5912L53.833 26.815ZM54.4556 23.8359V2.39062H51.4556V23.8359H54.4556ZM97.3097 18.5625L98.7946 18.3504L98.6106 17.0625H97.3097V18.5625ZM97.3566 18.8906L95.8716 19.1028L95.8741 19.12L95.877 19.1372L97.3566 18.8906ZM96.7706 23.6719L95.3271 23.2639L95.3242 23.2745L96.7706 23.6719ZM85.0284 35.4141L85.4258 36.8605L85.4364 36.8575L85.0284 35.4141ZM76.0988 35.4141L75.6867 36.8563L75.696 36.859L75.7054 36.8616L76.0988 35.4141ZM64.3566 23.6719L62.9091 24.0652L62.9116 24.0746L62.9143 24.084L64.3566 23.6719ZM64.3566 14.7422L62.9131 14.3342L62.9102 14.3448L64.3566 14.7422ZM76.0988 3L76.4961 4.44645L76.5067 4.44346L76.0988 3ZM92.5519 7.40625L93.5428 8.53232L94.731 7.48674L93.6232 6.35636L92.5519 7.40625ZM91.9659 7.92188L92.9507 9.05335L92.9569 9.04795L91.9659 7.92188ZM88.1691 11.2266L87.1342 12.3124L88.1232 13.2551L89.1539 12.358L88.1691 11.2266ZM84.7238 8.97656L84.1349 10.3562L84.1409 10.3587L84.7238 8.97656ZM70.4034 14.9062L71.7788 15.5049L71.7813 15.4991L70.4034 14.9062ZM83.5753 29.8125L83.9998 31.2512L84.0073 31.249L84.0148 31.2467L83.5753 29.8125ZM86.2706 28.5938L85.4884 27.3138L85.4778 27.3204L86.2706 28.5938ZM88.5206 26.7422L87.4248 25.7179L87.4188 25.7243L87.4129 25.7308L88.5206 26.7422ZM90.2316 24.375L91.5484 25.0933L92.7584 22.875H90.2316V24.375ZM80.5753 24.375H79.0753V25.875H80.5753V24.375ZM80.5753 18.5625V17.0625H79.0753V18.5625H80.5753ZM95.8248 18.7746C95.8248 18.7748 95.8248 18.7751 95.8249 18.7753C95.8249 18.7755 95.8249 18.7757 95.8249 18.7759C95.825 18.7761 95.825 18.7763 95.825 18.7766C95.8251 18.7768 95.8251 18.777 95.8251 18.7772C95.8252 18.7774 95.8252 18.7776 95.8252 18.7778C95.8253 18.7781 95.8253 18.7783 95.8253 18.7785C95.8253 18.7787 95.8254 18.7789 95.8254 18.7791C95.8254 18.7793 95.8255 18.7795 95.8255 18.7798C95.8255 18.78 95.8256 18.7802 95.8256 18.7804C95.8256 18.7806 95.8256 18.7808 95.8257 18.781C95.8257 18.7813 95.8257 18.7815 95.8258 18.7817C95.8258 18.7819 95.8258 18.7821 95.8259 18.7823C95.8259 18.7825 95.8259 18.7827 95.826 18.783C95.826 18.7832 95.826 18.7834 95.826 18.7836C95.8261 18.7838 95.8261 18.784 95.8261 18.7842C95.8262 18.7845 95.8262 18.7847 95.8262 18.7849C95.8263 18.7851 95.8263 18.7853 95.8263 18.7855C95.8264 18.7857 95.8264 18.786 95.8264 18.7862C95.8264 18.7864 95.8265 18.7866 95.8265 18.7868C95.8265 18.787 95.8266 18.7872 95.8266 18.7874C95.8266 18.7877 95.8267 18.7879 95.8267 18.7881C95.8267 18.7883 95.8267 18.7885 95.8268 18.7887C95.8268 18.7889 95.8268 18.7892 95.8269 18.7894C95.8269 18.7896 95.8269 18.7898 95.827 18.79C95.827 18.7902 95.827 18.7904 95.8271 18.7907C95.8271 18.7909 95.8271 18.7911 95.8271 18.7913C95.8272 18.7915 95.8272 18.7917 95.8272 18.7919C95.8273 18.7921 95.8273 18.7924 95.8273 18.7926C95.8274 18.7928 95.8274 18.793 95.8274 18.7932C95.8274 18.7934 95.8275 18.7936 95.8275 18.7939C95.8275 18.7941 95.8276 18.7943 95.8276 18.7945C95.8276 18.7947 95.8277 18.7949 95.8277 18.7951C95.8277 18.7954 95.8278 18.7956 95.8278 18.7958C95.8278 18.796 95.8278 18.7962 95.8279 18.7964C95.8279 18.7966 95.8279 18.7968 95.828 18.7971C95.828 18.7973 95.828 18.7975 95.8281 18.7977C95.8281 18.7979 95.8281 18.7981 95.8282 18.7983C95.8282 18.7986 95.8282 18.7988 95.8282 18.799C95.8283 18.7992 95.8283 18.7994 95.8283 18.7996C95.8284 18.7998 95.8284 18.8001 95.8284 18.8003C95.8285 18.8005 95.8285 18.8007 95.8285 18.8009C95.8285 18.8011 95.8286 18.8013 95.8286 18.8015C95.8286 18.8018 95.8287 18.802 95.8287 18.8022C95.8287 18.8024 95.8288 18.8026 95.8288 18.8028C95.8288 18.803 95.8289 18.8033 95.8289 18.8035C95.8289 18.8037 95.8289 18.8039 95.829 18.8041C95.829 18.8043 95.829 18.8045 95.8291 18.8048C95.8291 18.805 95.8291 18.8052 95.8292 18.8054C95.8292 18.8056 95.8292 18.8058 95.8293 18.806C95.8293 18.8062 95.8293 18.8065 95.8293 18.8067C95.8294 18.8069 95.8294 18.8071 95.8294 18.8073C95.8295 18.8075 95.8295 18.8077 95.8295 18.808C95.8296 18.8082 95.8296 18.8084 95.8296 18.8086C95.8296 18.8088 95.8297 18.809 95.8297 18.8092C95.8297 18.8095 95.8298 18.8097 95.8298 18.8099C95.8298 18.8101 95.8299 18.8103 95.8299 18.8105C95.8299 18.8107 95.83 18.8109 95.83 18.8112C95.83 18.8114 95.83 18.8116 95.8301 18.8118C95.8301 18.812 95.8301 18.8122 95.8302 18.8124C95.8302 18.8127 95.8302 18.8129 95.8303 18.8131C95.8303 18.8133 95.8303 18.8135 95.8303 18.8137C95.8304 18.8139 95.8304 18.8142 95.8304 18.8144C95.8305 18.8146 95.8305 18.8148 95.8305 18.815C95.8306 18.8152 95.8306 18.8154 95.8306 18.8156C95.8307 18.8159 95.8307 18.8161 95.8307 18.8163C95.8307 18.8165 95.8308 18.8167 95.8308 18.8169C95.8308 18.8171 95.8309 18.8174 95.8309 18.8176C95.8309 18.8178 95.831 18.818 95.831 18.8182C95.831 18.8184 95.8311 18.8186 95.8311 18.8189C95.8311 18.8191 95.8311 18.8193 95.8312 18.8195C95.8312 18.8197 95.8312 18.8199 95.8313 18.8201C95.8313 18.8203 95.8313 18.8206 95.8314 18.8208C95.8314 18.821 95.8314 18.8212 95.8314 18.8214C95.8315 18.8216 95.8315 18.8218 95.8315 18.8221C95.8316 18.8223 95.8316 18.8225 95.8316 18.8227C95.8317 18.8229 95.8317 18.8231 95.8317 18.8233C95.8318 18.8236 95.8318 18.8238 95.8318 18.824C95.8318 18.8242 95.8319 18.8244 95.8319 18.8246C95.8319 18.8248 95.832 18.825 95.832 18.8253C95.832 18.8255 95.8321 18.8257 95.8321 18.8259C95.8321 18.8261 95.8321 18.8263 95.8322 18.8265C95.8322 18.8268 95.8322 18.827 95.8323 18.8272C95.8323 18.8274 95.8323 18.8276 95.8324 18.8278C95.8324 18.828 95.8324 18.8283 95.8325 18.8285C95.8325 18.8287 95.8325 18.8289 95.8325 18.8291C95.8326 18.8293 95.8326 18.8295 95.8326 18.8297C95.8327 18.83 95.8327 18.8302 95.8327 18.8304C95.8328 18.8306 95.8328 18.8308 95.8328 18.831C95.8329 18.8312 95.8329 18.8315 95.8329 18.8317C95.8329 18.8319 95.833 18.8321 95.833 18.8323C95.833 18.8325 95.8331 18.8327 95.8331 18.833C95.8331 18.8332 95.8332 18.8334 95.8332 18.8336C95.8332 18.8338 95.8332 18.834 95.8333 18.8342C95.8333 18.8344 95.8333 18.8347 95.8334 18.8349C95.8334 18.8351 95.8334 18.8353 95.8335 18.8355C95.8335 18.8357 95.8335 18.8359 95.8336 18.8362C95.8336 18.8364 95.8336 18.8366 95.8336 18.8368C95.8337 18.837 95.8337 18.8372 95.8337 18.8374C95.8338 18.8377 95.8338 18.8379 95.8338 18.8381C95.8339 18.8383 95.8339 18.8385 95.8339 18.8387C95.834 18.8389 95.834 18.8391 95.834 18.8394C95.834 18.8396 95.8341 18.8398 95.8341 18.84C95.8341 18.8402 95.8342 18.8404 95.8342 18.8406C95.8342 18.8409 95.8343 18.8411 95.8343 18.8413C95.8343 18.8415 95.8343 18.8417 95.8344 18.8419C95.8344 18.8421 95.8344 18.8424 95.8345 18.8426C95.8345 18.8428 95.8345 18.843 95.8346 18.8432C95.8346 18.8434 95.8346 18.8436 95.8347 18.8438C95.8347 18.8441 95.8347 18.8443 95.8347 18.8445C95.8348 18.8447 95.8348 18.8449 95.8348 18.8451C95.8349 18.8453 95.8349 18.8456 95.8349 18.8458C95.835 18.846 95.835 18.8462 95.835 18.8464C95.835 18.8466 95.8351 18.8468 95.8351 18.8471C95.8351 18.8473 95.8352 18.8475 95.8352 18.8477C95.8352 18.8479 95.8353 18.8481 95.8353 18.8483C95.8353 18.8485 95.8354 18.8488 95.8354 18.849C95.8354 18.8492 95.8354 18.8494 95.8355 18.8496C95.8355 18.8498 95.8355 18.85 95.8356 18.8503C95.8356 18.8505 95.8356 18.8507 95.8357 18.8509C95.8357 18.8511 95.8357 18.8513 95.8358 18.8515C95.8358 18.8517 95.8358 18.852 95.8358 18.8522C95.8359 18.8524 95.8359 18.8526 95.8359 18.8528C95.836 18.853 95.836 18.8532 95.836 18.8535C95.8361 18.8537 95.8361 18.8539 95.8361 18.8541C95.8361 18.8543 95.8362 18.8545 95.8362 18.8547C95.8362 18.855 95.8363 18.8552 95.8363 18.8554C95.8363 18.8556 95.8364 18.8558 95.8364 18.856C95.8364 18.8562 95.8365 18.8564 95.8365 18.8567C95.8365 18.8569 95.8365 18.8571 95.8366 18.8573C95.8366 18.8575 95.8366 18.8577 95.8367 18.8579C95.8367 18.8582 95.8367 18.8584 95.8368 18.8586C95.8368 18.8588 95.8368 18.859 95.8368 18.8592C95.8369 18.8594 95.8369 18.8597 95.8369 18.8599C95.837 18.8601 95.837 18.8603 95.837 18.8605C95.8371 18.8607 95.8371 18.8609 95.8371 18.8611C95.8372 18.8614 95.8372 18.8616 95.8372 18.8618C95.8372 18.862 95.8373 18.8622 95.8373 18.8624C95.8373 18.8626 95.8374 18.8629 95.8374 18.8631C95.8374 18.8633 95.8375 18.8635 95.8375 18.8637C95.8375 18.8639 95.8376 18.8641 95.8376 18.8644C95.8376 18.8646 95.8376 18.8648 95.8377 18.865C95.8377 18.8652 95.8377 18.8654 95.8378 18.8656C95.8378 18.8658 95.8378 18.8661 95.8379 18.8663C95.8379 18.8665 95.8379 18.8667 95.8379 18.8669C95.838 18.8671 95.838 18.8673 95.838 18.8676C95.8381 18.8678 95.8381 18.868 95.8381 18.8682C95.8382 18.8684 95.8382 18.8686 95.8382 18.8688C95.8383 18.8691 95.8383 18.8693 95.8383 18.8695C95.8383 18.8697 95.8384 18.8699 95.8384 18.8701C95.8384 18.8703 95.8385 18.8705 95.8385 18.8708C95.8385 18.871 95.8386 18.8712 95.8386 18.8714C95.8386 18.8716 95.8386 18.8718 95.8387 18.872C95.8387 18.8723 95.8387 18.8725 95.8388 18.8727C95.8388 18.8729 95.8388 18.8731 95.8389 18.8733C95.8389 18.8735 95.8389 18.8738 95.839 18.874C95.839 18.8742 95.839 18.8744 95.839 18.8746C95.8391 18.8748 95.8391 18.875 95.8391 18.8752C95.8392 18.8755 95.8392 18.8757 95.8392 18.8759C95.8393 18.8761 95.8393 18.8763 95.8393 18.8765C95.8394 18.8767 95.8394 18.877 95.8394 18.8772C95.8394 18.8774 95.8395 18.8776 95.8395 18.8778C95.8395 18.878 95.8396 18.8782 95.8396 18.8785C95.8396 18.8787 95.8397 18.8789 95.8397 18.8791C95.8397 18.8793 95.8397 18.8795 95.8398 18.8797C95.8398 18.8799 95.8398 18.8802 95.8399 18.8804C95.8399 18.8806 95.8399 18.8808 95.84 18.881C95.84 18.8812 95.84 18.8814 95.8401 18.8817C95.8401 18.8819 95.8401 18.8821 95.8401 18.8823C95.8402 18.8825 95.8402 18.8827 95.8402 18.8829C95.8403 18.8832 95.8403 18.8834 95.8403 18.8836C95.8404 18.8838 95.8404 18.884 95.8404 18.8842C95.8405 18.8844 95.8405 18.8846 95.8405 18.8849C95.8405 18.8851 95.8406 18.8853 95.8406 18.8855C95.8406 18.8857 95.8407 18.8859 95.8407 18.8861C95.8407 18.8864 95.8408 18.8866 95.8408 18.8868C95.8408 18.887 95.8408 18.8872 95.8409 18.8874C95.8409 18.8876 95.8409 18.8879 95.841 18.8881C95.841 18.8883 95.841 18.8885 95.8411 18.8887C95.8411 18.8889 95.8411 18.8891 95.8412 18.8893C95.8412 18.8896 95.8412 18.8898 95.8412 18.89C95.8413 18.8902 95.8413 18.8904 95.8413 18.8906C95.8414 18.8908 95.8414 18.8911 95.8414 18.8913C95.8415 18.8915 95.8415 18.8917 95.8415 18.8919C95.8415 18.8921 95.8416 18.8923 95.8416 18.8926C95.8416 18.8928 95.8417 18.893 95.8417 18.8932C95.8417 18.8934 95.8418 18.8936 95.8418 18.8938C95.8418 18.894 95.8419 18.8943 95.8419 18.8945C95.8419 18.8947 95.8419 18.8949 95.842 18.8951C95.842 18.8953 95.842 18.8955 95.8421 18.8958C95.8421 18.896 95.8421 18.8962 95.8422 18.8964C95.8422 18.8966 95.8422 18.8968 95.8423 18.897C95.8423 18.8973 95.8423 18.8975 95.8423 18.8977C95.8424 18.8979 95.8424 18.8981 95.8424 18.8983C95.8425 18.8985 95.8425 18.8987 95.8425 18.899C95.8426 18.8992 95.8426 18.8994 95.8426 18.8996C95.8426 18.8998 95.8427 18.9 95.8427 18.9002C95.8427 18.9005 95.8428 18.9007 95.8428 18.9009C95.8428 18.9011 95.8429 18.9013 95.8429 18.9015C95.8429 18.9017 95.843 18.902 95.843 18.9022C95.843 18.9024 95.843 18.9026 95.8431 18.9028C95.8431 18.903 95.8431 18.9032 95.8432 18.9034C95.8432 18.9037 95.8432 18.9039 95.8433 18.9041C95.8433 18.9043 95.8433 18.9045 95.8433 18.9047C95.8434 18.9049 95.8434 18.9052 95.8434 18.9054C95.8435 18.9056 95.8435 18.9058 95.8435 18.906C95.8436 18.9062 95.8436 18.9064 95.8436 18.9067C95.8437 18.9069 95.8437 18.9071 95.8437 18.9073C95.8437 18.9075 95.8438 18.9077 95.8438 18.9079C95.8438 18.9081 95.8439 18.9084 95.8439 18.9086C95.8439 18.9088 95.844 18.909 95.844 18.9092C95.844 18.9094 95.8441 18.9096 95.8441 18.9099C95.8441 18.9101 95.8441 18.9103 95.8442 18.9105C95.8442 18.9107 95.8442 18.9109 95.8443 18.9111C95.8443 18.9114 95.8443 18.9116 95.8444 18.9118C95.8444 18.912 95.8444 18.9122 95.8444 18.9124C95.8445 18.9126 95.8445 18.9128 95.8445 18.9131C95.8446 18.9133 95.8446 18.9135 95.8446 18.9137C95.8447 18.9139 95.8447 18.9141 95.8447 18.9143C95.8448 18.9146 95.8448 18.9148 95.8448 18.915C95.8448 18.9152 95.8449 18.9154 95.8449 18.9156C95.8449 18.9158 95.845 18.9161 95.845 18.9163C95.845 18.9165 95.8451 18.9167 95.8451 18.9169C95.8451 18.9171 95.8452 18.9173 95.8452 18.9175C95.8452 18.9178 95.8452 18.918 95.8453 18.9182C95.8453 18.9184 95.8453 18.9186 95.8454 18.9188C95.8454 18.919 95.8454 18.9193 95.8455 18.9195C95.8455 18.9197 95.8455 18.9199 95.8455 18.9201C95.8456 18.9203 95.8456 18.9205 95.8456 18.9208C95.8457 18.921 95.8457 18.9212 95.8457 18.9214C95.8458 18.9216 95.8458 18.9218 95.8458 18.922C95.8459 18.9222 95.8459 18.9225 95.8459 18.9227C95.8459 18.9229 95.846 18.9231 95.846 18.9233C95.846 18.9235 95.8461 18.9237 95.8461 18.924C95.8461 18.9242 95.8462 18.9244 95.8462 18.9246C95.8462 18.9248 95.8462 18.925 95.8463 18.9252C95.8463 18.9254 95.8463 18.9257 95.8464 18.9259C95.8464 18.9261 95.8464 18.9263 95.8465 18.9265C95.8465 18.9267 95.8465 18.9269 95.8466 18.9272C95.8466 18.9274 95.8466 18.9276 95.8466 18.9278C95.8467 18.928 95.8467 18.9282 95.8467 18.9284C95.8468 18.9287 95.8468 18.9289 95.8468 18.9291C95.8469 18.9293 95.8469 18.9295 95.8469 18.9297C95.847 18.9299 95.847 18.9301 95.847 18.9304C95.847 18.9306 95.8471 18.9308 95.8471 18.931C95.8471 18.9312 95.8472 18.9314 95.8472 18.9316C95.8472 18.9319 95.8473 18.9321 95.8473 18.9323C95.8473 18.9325 95.8473 18.9327 95.8474 18.9329C95.8474 18.9331 95.8474 18.9334 95.8475 18.9336C95.8475 18.9338 95.8475 18.934 95.8476 18.9342C95.8476 18.9344 95.8476 18.9346 95.8477 18.9348C95.8477 18.9351 95.8477 18.9353 95.8477 18.9355C95.8478 18.9357 95.8478 18.9359 95.8478 18.9361C95.8479 18.9363 95.8479 18.9366 95.8479 18.9368C95.848 18.937 95.848 18.9372 95.848 18.9374C95.848 18.9376 95.8481 18.9378 95.8481 18.9381C95.8481 18.9383 95.8482 18.9385 95.8482 18.9387C95.8482 18.9389 95.8483 18.9391 95.8483 18.9393C95.8483 18.9395 95.8484 18.9398 95.8484 18.94C95.8484 18.9402 95.8484 18.9404 95.8485 18.9406C95.8485 18.9408 95.8485 18.941 95.8486 18.9413C95.8486 18.9415 95.8486 18.9417 95.8487 18.9419C95.8487 18.9421 95.8487 18.9423 95.8488 18.9425C95.8488 18.9428 95.8488 18.943 95.8488 18.9432C95.8489 18.9434 95.8489 18.9436 95.8489 18.9438C95.849 18.944 95.849 18.9442 95.849 18.9445C95.8491 18.9447 95.8491 18.9449 95.8491 18.9451C95.8491 18.9453 95.8492 18.9455 95.8492 18.9457C95.8492 18.946 95.8493 18.9462 95.8493 18.9464C95.8493 18.9466 95.8494 18.9468 95.8494 18.947C95.8494 18.9472 95.8495 18.9475 95.8495 18.9477C95.8495 18.9479 95.8495 18.9481 95.8496 18.9483C95.8496 18.9485 95.8496 18.9487 95.8497 18.9489C95.8497 18.9492 95.8497 18.9494 95.8498 18.9496C95.8498 18.9498 95.8498 18.95 95.8498 18.9502C95.8499 18.9504 95.8499 18.9507 95.8499 18.9509C95.85 18.9511 95.85 18.9513 95.85 18.9515C95.8501 18.9517 95.8501 18.9519 95.8501 18.9522C95.8502 18.9524 95.8502 18.9526 95.8502 18.9528C95.8502 18.953 95.8503 18.9532 95.8503 18.9534C95.8503 18.9536 95.8504 18.9539 95.8504 18.9541C95.8504 18.9543 95.8505 18.9545 95.8505 18.9547C95.8505 18.9549 95.8506 18.9551 95.8506 18.9554C95.8506 18.9556 95.8506 18.9558 95.8507 18.956C95.8507 18.9562 95.8507 18.9564 95.8508 18.9566C95.8508 18.9569 95.8508 18.9571 95.8509 18.9573C95.8509 18.9575 95.8509 18.9577 95.8509 18.9579C95.851 18.9581 95.851 18.9583 95.851 18.9586C95.8511 18.9588 95.8511 18.959 95.8511 18.9592C95.8512 18.9594 95.8512 18.9596 95.8512 18.9598C95.8513 18.9601 95.8513 18.9603 95.8513 18.9605C95.8513 18.9607 95.8514 18.9609 95.8514 18.9611C95.8514 18.9613 95.8515 18.9616 95.8515 18.9618C95.8515 18.962 95.8516 18.9622 95.8516 18.9624C95.8516 18.9626 95.8517 18.9628 95.8517 18.963C95.8517 18.9633 95.8517 18.9635 95.8518 18.9637C95.8518 18.9639 95.8518 18.9641 95.8519 18.9643C95.8519 18.9645 95.8519 18.9648 95.852 18.965C95.852 18.9652 95.852 18.9654 95.852 18.9656C95.8521 18.9658 95.8521 18.966 95.8521 18.9663C95.8522 18.9665 95.8522 18.9667 95.8522 18.9669C95.8523 18.9671 95.8523 18.9673 95.8523 18.9675C95.8524 18.9677 95.8524 18.968 95.8524 18.9682C95.8524 18.9684 95.8525 18.9686 95.8525 18.9688C95.8525 18.969 95.8526 18.9692 95.8526 18.9695C95.8526 18.9697 95.8527 18.9699 95.8527 18.9701C95.8527 18.9703 95.8527 18.9705 95.8528 18.9707C95.8528 18.971 95.8528 18.9712 95.8529 18.9714C95.8529 18.9716 95.8529 18.9718 95.853 18.972C95.853 18.9722 95.853 18.9724 95.8531 18.9727C95.8531 18.9729 95.8531 18.9731 95.8531 18.9733C95.8532 18.9735 95.8532 18.9737 95.8532 18.9739C95.8533 18.9742 95.8533 18.9744 95.8533 18.9746C95.8534 18.9748 95.8534 18.975 95.8534 18.9752C95.8535 18.9754 95.8535 18.9757 95.8535 18.9759C95.8535 18.9761 95.8536 18.9763 95.8536 18.9765C95.8536 18.9767 95.8537 18.9769 95.8537 18.9771C95.8537 18.9774 95.8538 18.9776 95.8538 18.9778C95.8538 18.978 95.8538 18.9782 95.8539 18.9784C95.8539 18.9786 95.8539 18.9789 95.854 18.9791C95.854 18.9793 95.854 18.9795 95.8541 18.9797C95.8541 18.9799 95.8541 18.9801 95.8542 18.9804C95.8542 18.9806 95.8542 18.9808 95.8542 18.981C95.8543 18.9812 95.8543 18.9814 95.8543 18.9816C95.8544 18.9818 95.8544 18.9821 95.8544 18.9823C95.8545 18.9825 95.8545 18.9827 95.8545 18.9829C95.8545 18.9831 95.8546 18.9833 95.8546 18.9836C95.8546 18.9838 95.8547 18.984 95.8547 18.9842C95.8547 18.9844 95.8548 18.9846 95.8548 18.9848C95.8548 18.9851 95.8549 18.9853 95.8549 18.9855C95.8549 18.9857 95.8549 18.9859 95.855 18.9861C95.855 18.9863 95.855 18.9865 95.8551 18.9868C95.8551 18.987 95.8551 18.9872 95.8552 18.9874C95.8552 18.9876 95.8552 18.9878 95.8553 18.988C95.8553 18.9883 95.8553 18.9885 95.8553 18.9887C95.8554 18.9889 95.8554 18.9891 95.8554 18.9893C95.8555 18.9895 95.8555 18.9898 95.8555 18.99C95.8556 18.9902 95.8556 18.9904 95.8556 18.9906C95.8556 18.9908 95.8557 18.991 95.8557 18.9912C95.8557 18.9915 95.8558 18.9917 95.8558 18.9919C95.8558 18.9921 95.8559 18.9923 95.8559 18.9925C95.8559 18.9927 95.856 18.993 95.856 18.9932C95.856 18.9934 95.856 18.9936 95.8561 18.9938C95.8561 18.994 95.8561 18.9942 95.8562 18.9945C95.8562 18.9947 95.8562 18.9949 95.8563 18.9951C95.8563 18.9953 95.8563 18.9955 95.8564 18.9957C95.8564 18.9959 95.8564 18.9962 95.8564 18.9964C95.8565 18.9966 95.8565 18.9968 95.8565 18.997C95.8566 18.9972 95.8566 18.9974 95.8566 18.9977C95.8567 18.9979 95.8567 18.9981 95.8567 18.9983C95.8567 18.9985 95.8568 18.9987 95.8568 18.9989C95.8568 18.9991 95.8569 18.9994 95.8569 18.9996C95.8569 18.9998 95.857 19 95.857 19.0002C95.857 19.0004 95.8571 19.0006 95.8571 19.0009C95.8571 19.0011 95.8571 19.0013 95.8572 19.0015C95.8572 19.0017 95.8572 19.0019 95.8573 19.0021C95.8573 19.0024 95.8573 19.0026 95.8574 19.0028C95.8574 19.003 95.8574 19.0032 95.8574 19.0034C95.8575 19.0036 95.8575 19.0038 95.8575 19.0041C95.8576 19.0043 95.8576 19.0045 95.8576 19.0047C95.8577 19.0049 95.8577 19.0051 95.8577 19.0053C95.8578 19.0056 95.8578 19.0058 95.8578 19.006C95.8578 19.0062 95.8579 19.0064 95.8579 19.0066C95.8579 19.0068 95.858 19.0071 95.858 19.0073C95.858 19.0075 95.8581 19.0077 95.8581 19.0079C95.8581 19.0081 95.8582 19.0083 95.8582 19.0085C95.8582 19.0088 95.8582 19.009 95.8583 19.0092C95.8583 19.0094 95.8583 19.0096 95.8584 19.0098C95.8584 19.01 95.8584 19.0103 95.8585 19.0105C95.8585 19.0107 95.8585 19.0109 95.8585 19.0111C95.8586 19.0113 95.8586 19.0115 95.8586 19.0118C95.8587 19.012 95.8587 19.0122 95.8587 19.0124C95.8588 19.0126 95.8588 19.0128 95.8588 19.013C95.8589 19.0132 95.8589 19.0135 95.8589 19.0137C95.8589 19.0139 95.859 19.0141 95.859 19.0143C95.859 19.0145 95.8591 19.0147 95.8591 19.015C95.8591 19.0152 95.8592 19.0154 95.8592 19.0156C95.8592 19.0158 95.8592 19.016 95.8593 19.0162C95.8593 19.0165 95.8593 19.0167 95.8594 19.0169C95.8594 19.0171 95.8594 19.0173 95.8595 19.0175C95.8595 19.0177 95.8595 19.0179 95.8596 19.0182C95.8596 19.0184 95.8596 19.0186 95.8596 19.0188C95.8597 19.019 95.8597 19.0192 95.8597 19.0194C95.8598 19.0197 95.8598 19.0199 95.8598 19.0201C95.8599 19.0203 95.8599 19.0205 95.8599 19.0207C95.86 19.0209 95.86 19.0212 95.86 19.0214C95.86 19.0216 95.8601 19.0218 95.8601 19.022C95.8601 19.0222 95.8602 19.0224 95.8602 19.0226C95.8602 19.0229 95.8603 19.0231 95.8603 19.0233C95.8603 19.0235 95.8603 19.0237 95.8604 19.0239C95.8604 19.0241 95.8604 19.0244 95.8605 19.0246C95.8605 19.0248 95.8605 19.025 95.8606 19.0252C95.8606 19.0254 95.8606 19.0256 95.8607 19.0259C95.8607 19.0261 95.8607 19.0263 95.8607 19.0265C95.8608 19.0267 95.8608 19.0269 95.8608 19.0271C95.8609 19.0273 95.8609 19.0276 95.8609 19.0278C95.861 19.028 95.861 19.0282 95.861 19.0284C95.861 19.0286 95.8611 19.0288 95.8611 19.0291C95.8611 19.0293 95.8612 19.0295 95.8612 19.0297C95.8612 19.0299 95.8613 19.0301 95.8613 19.0303C95.8613 19.0306 95.8614 19.0308 95.8614 19.031C95.8614 19.0312 95.8614 19.0314 95.8615 19.0316C95.8615 19.0318 95.8615 19.032 95.8616 19.0323C95.8616 19.0325 95.8616 19.0327 95.8617 19.0329C95.8617 19.0331 95.8617 19.0333 95.8618 19.0335C95.8618 19.0338 95.8618 19.034 95.8618 19.0342C95.8619 19.0344 95.8619 19.0346 95.8619 19.0348C95.862 19.035 95.862 19.0353 95.862 19.0355C95.8621 19.0357 95.8621 19.0359 95.8621 19.0361C95.8621 19.0363 95.8622 19.0365 95.8622 19.0367C95.8622 19.037 95.8623 19.0372 95.8623 19.0374C95.8623 19.0376 95.8624 19.0378 95.8624 19.038C95.8624 19.0382 95.8625 19.0385 95.8625 19.0387C95.8625 19.0389 95.8625 19.0391 95.8626 19.0393C95.8626 19.0395 95.8626 19.0397 95.8627 19.04C95.8627 19.0402 95.8627 19.0404 95.8628 19.0406C95.8628 19.0408 95.8628 19.041 95.8629 19.0412C95.8629 19.0414 95.8629 19.0417 95.8629 19.0419C95.863 19.0421 95.863 19.0423 95.863 19.0425C95.8631 19.0427 95.8631 19.0429 95.8631 19.0432C95.8632 19.0434 95.8632 19.0436 95.8632 19.0438C95.8632 19.044 95.8633 19.0442 95.8633 19.0444C95.8633 19.0447 95.8634 19.0449 95.8634 19.0451C95.8634 19.0453 95.8635 19.0455 95.8635 19.0457C95.8635 19.0459 95.8636 19.0461 95.8636 19.0464C95.8636 19.0466 95.8636 19.0468 95.8637 19.047C95.8637 19.0472 95.8637 19.0474 95.8638 19.0476C95.8638 19.0479 95.8638 19.0481 95.8639 19.0483C95.8639 19.0485 95.8639 19.0487 95.8639 19.0489C95.864 19.0491 95.864 19.0494 95.864 19.0496C95.8641 19.0498 95.8641 19.05 95.8641 19.0502C95.8642 19.0504 95.8642 19.0506 95.8642 19.0508C95.8643 19.0511 95.8643 19.0513 95.8643 19.0515C95.8643 19.0517 95.8644 19.0519 95.8644 19.0521C95.8644 19.0523 95.8645 19.0526 95.8645 19.0528C95.8645 19.053 95.8646 19.0532 95.8646 19.0534C95.8646 19.0536 95.8647 19.0538 95.8647 19.0541C95.8647 19.0543 95.8647 19.0545 95.8648 19.0547C95.8648 19.0549 95.8648 19.0551 95.8649 19.0553C95.8649 19.0555 95.8649 19.0558 95.865 19.056C95.865 19.0562 95.865 19.0564 95.865 19.0566C95.8651 19.0568 95.8651 19.057 95.8651 19.0573C95.8652 19.0575 95.8652 19.0577 95.8652 19.0579C95.8653 19.0581 95.8653 19.0583 95.8653 19.0585C95.8654 19.0588 95.8654 19.059 95.8654 19.0592C95.8654 19.0594 95.8655 19.0596 95.8655 19.0598C95.8655 19.06 95.8656 19.0602 95.8656 19.0605C95.8656 19.0607 95.8657 19.0609 95.8657 19.0611C95.8657 19.0613 95.8657 19.0615 95.8658 19.0617C95.8658 19.062 95.8658 19.0622 95.8659 19.0624C95.8659 19.0626 95.8659 19.0628 95.866 19.063C95.866 19.0632 95.866 19.0635 95.8661 19.0637C95.8661 19.0639 95.8661 19.0641 95.8661 19.0643C95.8662 19.0645 95.8662 19.0647 95.8662 19.0649C95.8663 19.0652 95.8663 19.0654 95.8663 19.0656C95.8664 19.0658 95.8664 19.066 95.8664 19.0662C95.8665 19.0664 95.8665 19.0667 95.8665 19.0669C95.8665 19.0671 95.8666 19.0673 95.8666 19.0675C95.8666 19.0677 95.8667 19.0679 95.8667 19.0682C95.8667 19.0684 95.8668 19.0686 95.8668 19.0688C95.8668 19.069 95.8668 19.0692 95.8669 19.0694C95.8669 19.0696 95.8669 19.0699 95.867 19.0701C95.867 19.0703 95.867 19.0705 95.8671 19.0707C95.8671 19.0709 95.8671 19.0711 95.8672 19.0714C95.8672 19.0716 95.8672 19.0718 95.8672 19.072C95.8673 19.0722 95.8673 19.0724 95.8673 19.0726C95.8674 19.0728 95.8674 19.0731 95.8674 19.0733C95.8675 19.0735 95.8675 19.0737 95.8675 19.0739C95.8675 19.0741 95.8676 19.0743 95.8676 19.0746C95.8676 19.0748 95.8677 19.075 95.8677 19.0752C95.8677 19.0754 95.8678 19.0756 95.8678 19.0758C95.8678 19.0761 95.8679 19.0763 95.8679 19.0765C95.8679 19.0767 95.8679 19.0769 95.868 19.0771C95.868 19.0773 95.868 19.0775 95.8681 19.0778C95.8681 19.078 95.8681 19.0782 95.8682 19.0784C95.8682 19.0786 95.8682 19.0788 95.8683 19.079C95.8683 19.0793 95.8683 19.0795 95.8683 19.0797C95.8684 19.0799 95.8684 19.0801 95.8684 19.0803C95.8685 19.0805 95.8685 19.0808 95.8685 19.081C95.8686 19.0812 95.8686 19.0814 95.8686 19.0816C95.8686 19.0818 95.8687 19.082 95.8687 19.0822C95.8687 19.0825 95.8688 19.0827 95.8688 19.0829C95.8688 19.0831 95.8689 19.0833 95.8689 19.0835C95.8689 19.0837 95.869 19.084 95.869 19.0842C95.869 19.0844 95.869 19.0846 95.8691 19.0848C95.8691 19.085 95.8691 19.0852 95.8692 19.0855C95.8692 19.0857 95.8692 19.0859 95.8693 19.0861C95.8693 19.0863 95.8693 19.0865 95.8694 19.0867C95.8694 19.0869 95.8694 19.0872 95.8694 19.0874C95.8695 19.0876 95.8695 19.0878 95.8695 19.088C95.8696 19.0882 95.8696 19.0884 95.8696 19.0887C95.8697 19.0889 95.8697 19.0891 95.8697 19.0893C95.8697 19.0895 95.8698 19.0897 95.8698 19.0899C95.8698 19.0902 95.8699 19.0904 95.8699 19.0906C95.8699 19.0908 95.87 19.091 95.87 19.0912C95.87 19.0914 95.8701 19.0916 95.8701 19.0919C95.8701 19.0921 95.8701 19.0923 95.8702 19.0925C95.8702 19.0927 95.8702 19.0929 95.8703 19.0931C95.8703 19.0934 95.8703 19.0936 95.8704 19.0938C95.8704 19.094 95.8704 19.0942 95.8704 19.0944C95.8705 19.0946 95.8705 19.0949 95.8705 19.0951C95.8706 19.0953 95.8706 19.0955 95.8706 19.0957C95.8707 19.0959 95.8707 19.0961 95.8707 19.0963C95.8708 19.0966 95.8708 19.0968 95.8708 19.097C95.8708 19.0972 95.8709 19.0974 95.8709 19.0976C95.8709 19.0978 95.871 19.0981 95.871 19.0983C95.871 19.0985 95.8711 19.0987 95.8711 19.0989C95.8711 19.0991 95.8712 19.0993 95.8712 19.0996C95.8712 19.0998 95.8712 19.1 95.8713 19.1002C95.8713 19.1004 95.8713 19.1006 95.8714 19.1008C95.8714 19.101 95.8714 19.1013 95.8715 19.1015C95.8715 19.1017 95.8715 19.1019 95.8715 19.1021C95.8716 19.1023 95.8716 19.1025 95.8716 19.1028L98.8415 18.6785C98.8415 18.6783 98.8414 18.6781 98.8414 18.6779C98.8414 18.6776 98.8413 18.6774 98.8413 18.6772C98.8413 18.677 98.8412 18.6768 98.8412 18.6766C98.8412 18.6764 98.8412 18.6761 98.8411 18.6759C98.8411 18.6757 98.8411 18.6755 98.841 18.6753C98.841 18.6751 98.841 18.6749 98.8409 18.6746C98.8409 18.6744 98.8409 18.6742 98.8408 18.674C98.8408 18.6738 98.8408 18.6736 98.8408 18.6734C98.8407 18.6732 98.8407 18.6729 98.8407 18.6727C98.8406 18.6725 98.8406 18.6723 98.8406 18.6721C98.8405 18.6719 98.8405 18.6717 98.8405 18.6714C98.8405 18.6712 98.8404 18.671 98.8404 18.6708C98.8404 18.6706 98.8403 18.6704 98.8403 18.6702C98.8403 18.6699 98.8402 18.6697 98.8402 18.6695C98.8402 18.6693 98.8401 18.6691 98.8401 18.6689C98.8401 18.6687 98.8401 18.6685 98.84 18.6682C98.84 18.668 98.84 18.6678 98.8399 18.6676C98.8399 18.6674 98.8399 18.6672 98.8398 18.667C98.8398 18.6667 98.8398 18.6665 98.8397 18.6663C98.8397 18.6661 98.8397 18.6659 98.8397 18.6657C98.8396 18.6655 98.8396 18.6652 98.8396 18.665C98.8395 18.6648 98.8395 18.6646 98.8395 18.6644C98.8394 18.6642 98.8394 18.664 98.8394 18.6638C98.8394 18.6635 98.8393 18.6633 98.8393 18.6631C98.8393 18.6629 98.8392 18.6627 98.8392 18.6625C98.8392 18.6623 98.8391 18.662 98.8391 18.6618C98.8391 18.6616 98.839 18.6614 98.839 18.6612C98.839 18.661 98.839 18.6608 98.8389 18.6605C98.8389 18.6603 98.8389 18.6601 98.8388 18.6599C98.8388 18.6597 98.8388 18.6595 98.8387 18.6593C98.8387 18.6591 98.8387 18.6588 98.8386 18.6586C98.8386 18.6584 98.8386 18.6582 98.8386 18.658C98.8385 18.6578 98.8385 18.6576 98.8385 18.6573C98.8384 18.6571 98.8384 18.6569 98.8384 18.6567C98.8383 18.6565 98.8383 18.6563 98.8383 18.6561C98.8383 18.6558 98.8382 18.6556 98.8382 18.6554C98.8382 18.6552 98.8381 18.655 98.8381 18.6548C98.8381 18.6546 98.838 18.6544 98.838 18.6541C98.838 18.6539 98.8379 18.6537 98.8379 18.6535C98.8379 18.6533 98.8379 18.6531 98.8378 18.6529C98.8378 18.6526 98.8378 18.6524 98.8377 18.6522C98.8377 18.652 98.8377 18.6518 98.8376 18.6516C98.8376 18.6514 98.8376 18.6511 98.8376 18.6509C98.8375 18.6507 98.8375 18.6505 98.8375 18.6503C98.8374 18.6501 98.8374 18.6499 98.8374 18.6497C98.8373 18.6494 98.8373 18.6492 98.8373 18.649C98.8372 18.6488 98.8372 18.6486 98.8372 18.6484C98.8372 18.6482 98.8371 18.6479 98.8371 18.6477C98.8371 18.6475 98.837 18.6473 98.837 18.6471C98.837 18.6469 98.8369 18.6467 98.8369 18.6464C98.8369 18.6462 98.8368 18.646 98.8368 18.6458C98.8368 18.6456 98.8368 18.6454 98.8367 18.6452C98.8367 18.645 98.8367 18.6447 98.8366 18.6445C98.8366 18.6443 98.8366 18.6441 98.8365 18.6439C98.8365 18.6437 98.8365 18.6435 98.8365 18.6432C98.8364 18.643 98.8364 18.6428 98.8364 18.6426C98.8363 18.6424 98.8363 18.6422 98.8363 18.642C98.8362 18.6417 98.8362 18.6415 98.8362 18.6413C98.8361 18.6411 98.8361 18.6409 98.8361 18.6407C98.8361 18.6405 98.836 18.6403 98.836 18.64C98.836 18.6398 98.8359 18.6396 98.8359 18.6394C98.8359 18.6392 98.8358 18.639 98.8358 18.6388C98.8358 18.6385 98.8358 18.6383 98.8357 18.6381C98.8357 18.6379 98.8357 18.6377 98.8356 18.6375C98.8356 18.6373 98.8356 18.6371 98.8355 18.6368C98.8355 18.6366 98.8355 18.6364 98.8354 18.6362C98.8354 18.636 98.8354 18.6358 98.8354 18.6356C98.8353 18.6353 98.8353 18.6351 98.8353 18.6349C98.8352 18.6347 98.8352 18.6345 98.8352 18.6343C98.8351 18.6341 98.8351 18.6338 98.8351 18.6336C98.835 18.6334 98.835 18.6332 98.835 18.633C98.835 18.6328 98.8349 18.6326 98.8349 18.6324C98.8349 18.6321 98.8348 18.6319 98.8348 18.6317C98.8348 18.6315 98.8347 18.6313 98.8347 18.6311C98.8347 18.6309 98.8347 18.6306 98.8346 18.6304C98.8346 18.6302 98.8346 18.63 98.8345 18.6298C98.8345 18.6296 98.8345 18.6294 98.8344 18.6291C98.8344 18.6289 98.8344 18.6287 98.8343 18.6285C98.8343 18.6283 98.8343 18.6281 98.8343 18.6279C98.8342 18.6277 98.8342 18.6274 98.8342 18.6272C98.8341 18.627 98.8341 18.6268 98.8341 18.6266C98.834 18.6264 98.834 18.6262 98.834 18.6259C98.8339 18.6257 98.8339 18.6255 98.8339 18.6253C98.8339 18.6251 98.8338 18.6249 98.8338 18.6247C98.8338 18.6244 98.8337 18.6242 98.8337 18.624C98.8337 18.6238 98.8336 18.6236 98.8336 18.6234C98.8336 18.6232 98.8336 18.623 98.8335 18.6227C98.8335 18.6225 98.8335 18.6223 98.8334 18.6221C98.8334 18.6219 98.8334 18.6217 98.8333 18.6215C98.8333 18.6212 98.8333 18.621 98.8332 18.6208C98.8332 18.6206 98.8332 18.6204 98.8332 18.6202C98.8331 18.62 98.8331 18.6197 98.8331 18.6195C98.833 18.6193 98.833 18.6191 98.833 18.6189C98.8329 18.6187 98.8329 18.6185 98.8329 18.6183C98.8329 18.618 98.8328 18.6178 98.8328 18.6176C98.8328 18.6174 98.8327 18.6172 98.8327 18.617C98.8327 18.6168 98.8326 18.6165 98.8326 18.6163C98.8326 18.6161 98.8325 18.6159 98.8325 18.6157C98.8325 18.6155 98.8325 18.6153 98.8324 18.615C98.8324 18.6148 98.8324 18.6146 98.8323 18.6144C98.8323 18.6142 98.8323 18.614 98.8322 18.6138C98.8322 18.6136 98.8322 18.6133 98.8321 18.6131C98.8321 18.6129 98.8321 18.6127 98.8321 18.6125C98.832 18.6123 98.832 18.6121 98.832 18.6118C98.8319 18.6116 98.8319 18.6114 98.8319 18.6112C98.8318 18.611 98.8318 18.6108 98.8318 18.6106C98.8318 18.6103 98.8317 18.6101 98.8317 18.6099C98.8317 18.6097 98.8316 18.6095 98.8316 18.6093C98.8316 18.6091 98.8315 18.6089 98.8315 18.6086C98.8315 18.6084 98.8314 18.6082 98.8314 18.608C98.8314 18.6078 98.8314 18.6076 98.8313 18.6074C98.8313 18.6071 98.8313 18.6069 98.8312 18.6067C98.8312 18.6065 98.8312 18.6063 98.8311 18.6061C98.8311 18.6059 98.8311 18.6056 98.8311 18.6054C98.831 18.6052 98.831 18.605 98.831 18.6048C98.8309 18.6046 98.8309 18.6044 98.8309 18.6042C98.8308 18.6039 98.8308 18.6037 98.8308 18.6035C98.8307 18.6033 98.8307 18.6031 98.8307 18.6029C98.8307 18.6027 98.8306 18.6024 98.8306 18.6022C98.8306 18.602 98.8305 18.6018 98.8305 18.6016C98.8305 18.6014 98.8304 18.6012 98.8304 18.6009C98.8304 18.6007 98.8303 18.6005 98.8303 18.6003C98.8303 18.6001 98.8303 18.5999 98.8302 18.5997C98.8302 18.5995 98.8302 18.5992 98.8301 18.599C98.8301 18.5988 98.8301 18.5986 98.83 18.5984C98.83 18.5982 98.83 18.598 98.83 18.5977C98.8299 18.5975 98.8299 18.5973 98.8299 18.5971C98.8298 18.5969 98.8298 18.5967 98.8298 18.5965C98.8297 18.5962 98.8297 18.596 98.8297 18.5958C98.8296 18.5956 98.8296 18.5954 98.8296 18.5952C98.8296 18.595 98.8295 18.5948 98.8295 18.5945C98.8295 18.5943 98.8294 18.5941 98.8294 18.5939C98.8294 18.5937 98.8293 18.5935 98.8293 18.5933C98.8293 18.593 98.8293 18.5928 98.8292 18.5926C98.8292 18.5924 98.8292 18.5922 98.8291 18.592C98.8291 18.5918 98.8291 18.5915 98.829 18.5913C98.829 18.5911 98.829 18.5909 98.8289 18.5907C98.8289 18.5905 98.8289 18.5903 98.8289 18.5901C98.8288 18.5898 98.8288 18.5896 98.8288 18.5894C98.8287 18.5892 98.8287 18.589 98.8287 18.5888C98.8286 18.5886 98.8286 18.5883 98.8286 18.5881C98.8285 18.5879 98.8285 18.5877 98.8285 18.5875C98.8285 18.5873 98.8284 18.5871 98.8284 18.5868C98.8284 18.5866 98.8283 18.5864 98.8283 18.5862C98.8283 18.586 98.8282 18.5858 98.8282 18.5856C98.8282 18.5854 98.8282 18.5851 98.8281 18.5849C98.8281 18.5847 98.8281 18.5845 98.828 18.5843C98.828 18.5841 98.828 18.5839 98.8279 18.5836C98.8279 18.5834 98.8279 18.5832 98.8278 18.583C98.8278 18.5828 98.8278 18.5826 98.8278 18.5824C98.8277 18.5821 98.8277 18.5819 98.8277 18.5817C98.8276 18.5815 98.8276 18.5813 98.8276 18.5811C98.8275 18.5809 98.8275 18.5807 98.8275 18.5804C98.8274 18.5802 98.8274 18.58 98.8274 18.5798C98.8274 18.5796 98.8273 18.5794 98.8273 18.5792C98.8273 18.5789 98.8272 18.5787 98.8272 18.5785C98.8272 18.5783 98.8271 18.5781 98.8271 18.5779C98.8271 18.5777 98.8271 18.5774 98.827 18.5772C98.827 18.577 98.827 18.5768 98.8269 18.5766C98.8269 18.5764 98.8269 18.5762 98.8268 18.576C98.8268 18.5757 98.8268 18.5755 98.8267 18.5753C98.8267 18.5751 98.8267 18.5749 98.8267 18.5747C98.8266 18.5745 98.8266 18.5742 98.8266 18.574C98.8265 18.5738 98.8265 18.5736 98.8265 18.5734C98.8264 18.5732 98.8264 18.573 98.8264 18.5727C98.8264 18.5725 98.8263 18.5723 98.8263 18.5721C98.8263 18.5719 98.8262 18.5717 98.8262 18.5715C98.8262 18.5713 98.8261 18.571 98.8261 18.5708C98.8261 18.5706 98.826 18.5704 98.826 18.5702C98.826 18.57 98.826 18.5698 98.8259 18.5695C98.8259 18.5693 98.8259 18.5691 98.8258 18.5689C98.8258 18.5687 98.8258 18.5685 98.8257 18.5683C98.8257 18.568 98.8257 18.5678 98.8256 18.5676C98.8256 18.5674 98.8256 18.5672 98.8256 18.567C98.8255 18.5668 98.8255 18.5666 98.8255 18.5663C98.8254 18.5661 98.8254 18.5659 98.8254 18.5657C98.8253 18.5655 98.8253 18.5653 98.8253 18.5651C98.8253 18.5648 98.8252 18.5646 98.8252 18.5644C98.8252 18.5642 98.8251 18.564 98.8251 18.5638C98.8251 18.5636 98.825 18.5634 98.825 18.5631C98.825 18.5629 98.8249 18.5627 98.8249 18.5625C98.8249 18.5623 98.8249 18.5621 98.8248 18.5619C98.8248 18.5616 98.8248 18.5614 98.8247 18.5612C98.8247 18.561 98.8247 18.5608 98.8246 18.5606C98.8246 18.5604 98.8246 18.5601 98.8246 18.5599C98.8245 18.5597 98.8245 18.5595 98.8245 18.5593C98.8244 18.5591 98.8244 18.5589 98.8244 18.5587C98.8243 18.5584 98.8243 18.5582 98.8243 18.558C98.8242 18.5578 98.8242 18.5576 98.8242 18.5574C98.8242 18.5572 98.8241 18.5569 98.8241 18.5567C98.8241 18.5565 98.824 18.5563 98.824 18.5561C98.824 18.5559 98.8239 18.5557 98.8239 18.5554C98.8239 18.5552 98.8238 18.555 98.8238 18.5548C98.8238 18.5546 98.8238 18.5544 98.8237 18.5542C98.8237 18.554 98.8237 18.5537 98.8236 18.5535C98.8236 18.5533 98.8236 18.5531 98.8235 18.5529C98.8235 18.5527 98.8235 18.5525 98.8235 18.5522C98.8234 18.552 98.8234 18.5518 98.8234 18.5516C98.8233 18.5514 98.8233 18.5512 98.8233 18.551C98.8232 18.5507 98.8232 18.5505 98.8232 18.5503C98.8231 18.5501 98.8231 18.5499 98.8231 18.5497C98.8231 18.5495 98.823 18.5493 98.823 18.549C98.823 18.5488 98.8229 18.5486 98.8229 18.5484C98.8229 18.5482 98.8228 18.548 98.8228 18.5478C98.8228 18.5475 98.8228 18.5473 98.8227 18.5471C98.8227 18.5469 98.8227 18.5467 98.8226 18.5465C98.8226 18.5463 98.8226 18.546 98.8225 18.5458C98.8225 18.5456 98.8225 18.5454 98.8224 18.5452C98.8224 18.545 98.8224 18.5448 98.8224 18.5446C98.8223 18.5443 98.8223 18.5441 98.8223 18.5439C98.8222 18.5437 98.8222 18.5435 98.8222 18.5433C98.8221 18.5431 98.8221 18.5428 98.8221 18.5426C98.822 18.5424 98.822 18.5422 98.822 18.542C98.822 18.5418 98.8219 18.5416 98.8219 18.5413C98.8219 18.5411 98.8218 18.5409 98.8218 18.5407C98.8218 18.5405 98.8217 18.5403 98.8217 18.5401C98.8217 18.5399 98.8217 18.5396 98.8216 18.5394C98.8216 18.5392 98.8216 18.539 98.8215 18.5388C98.8215 18.5386 98.8215 18.5384 98.8214 18.5381C98.8214 18.5379 98.8214 18.5377 98.8213 18.5375C98.8213 18.5373 98.8213 18.5371 98.8213 18.5369C98.8212 18.5366 98.8212 18.5364 98.8212 18.5362C98.8211 18.536 98.8211 18.5358 98.8211 18.5356C98.821 18.5354 98.821 18.5352 98.821 18.5349C98.8209 18.5347 98.8209 18.5345 98.8209 18.5343C98.8209 18.5341 98.8208 18.5339 98.8208 18.5337C98.8208 18.5334 98.8207 18.5332 98.8207 18.533C98.8207 18.5328 98.8206 18.5326 98.8206 18.5324C98.8206 18.5322 98.8206 18.5319 98.8205 18.5317C98.8205 18.5315 98.8205 18.5313 98.8204 18.5311C98.8204 18.5309 98.8204 18.5307 98.8203 18.5305C98.8203 18.5302 98.8203 18.53 98.8202 18.5298C98.8202 18.5296 98.8202 18.5294 98.8202 18.5292C98.8201 18.529 98.8201 18.5287 98.8201 18.5285C98.82 18.5283 98.82 18.5281 98.82 18.5279C98.8199 18.5277 98.8199 18.5275 98.8199 18.5272C98.8199 18.527 98.8198 18.5268 98.8198 18.5266C98.8198 18.5264 98.8197 18.5262 98.8197 18.526C98.8197 18.5258 98.8196 18.5255 98.8196 18.5253C98.8196 18.5251 98.8195 18.5249 98.8195 18.5247C98.8195 18.5245 98.8195 18.5243 98.8194 18.524C98.8194 18.5238 98.8194 18.5236 98.8193 18.5234C98.8193 18.5232 98.8193 18.523 98.8192 18.5228C98.8192 18.5225 98.8192 18.5223 98.8191 18.5221C98.8191 18.5219 98.8191 18.5217 98.8191 18.5215C98.819 18.5213 98.819 18.5211 98.819 18.5208C98.8189 18.5206 98.8189 18.5204 98.8189 18.5202C98.8188 18.52 98.8188 18.5198 98.8188 18.5196C98.8188 18.5193 98.8187 18.5191 98.8187 18.5189C98.8187 18.5187 98.8186 18.5185 98.8186 18.5183C98.8186 18.5181 98.8185 18.5178 98.8185 18.5176C98.8185 18.5174 98.8184 18.5172 98.8184 18.517C98.8184 18.5168 98.8184 18.5166 98.8183 18.5164C98.8183 18.5161 98.8183 18.5159 98.8182 18.5157C98.8182 18.5155 98.8182 18.5153 98.8181 18.5151C98.8181 18.5149 98.8181 18.5146 98.8181 18.5144C98.818 18.5142 98.818 18.514 98.818 18.5138C98.8179 18.5136 98.8179 18.5134 98.8179 18.5131C98.8178 18.5129 98.8178 18.5127 98.8178 18.5125C98.8177 18.5123 98.8177 18.5121 98.8177 18.5119C98.8177 18.5117 98.8176 18.5114 98.8176 18.5112C98.8176 18.511 98.8175 18.5108 98.8175 18.5106C98.8175 18.5104 98.8174 18.5102 98.8174 18.5099C98.8174 18.5097 98.8173 18.5095 98.8173 18.5093C98.8173 18.5091 98.8173 18.5089 98.8172 18.5087C98.8172 18.5084 98.8172 18.5082 98.8171 18.508C98.8171 18.5078 98.8171 18.5076 98.817 18.5074C98.817 18.5072 98.817 18.507 98.817 18.5067C98.8169 18.5065 98.8169 18.5063 98.8169 18.5061C98.8168 18.5059 98.8168 18.5057 98.8168 18.5055C98.8167 18.5052 98.8167 18.505 98.8167 18.5048C98.8166 18.5046 98.8166 18.5044 98.8166 18.5042C98.8166 18.504 98.8165 18.5037 98.8165 18.5035C98.8165 18.5033 98.8164 18.5031 98.8164 18.5029C98.8164 18.5027 98.8163 18.5025 98.8163 18.5023C98.8163 18.502 98.8162 18.5018 98.8162 18.5016C98.8162 18.5014 98.8162 18.5012 98.8161 18.501C98.8161 18.5008 98.8161 18.5005 98.816 18.5003C98.816 18.5001 98.816 18.4999 98.8159 18.4997C98.8159 18.4995 98.8159 18.4993 98.8159 18.499C98.8158 18.4988 98.8158 18.4986 98.8158 18.4984C98.8157 18.4982 98.8157 18.498 98.8157 18.4978C98.8156 18.4976 98.8156 18.4973 98.8156 18.4971C98.8155 18.4969 98.8155 18.4967 98.8155 18.4965C98.8155 18.4963 98.8154 18.4961 98.8154 18.4958C98.8154 18.4956 98.8153 18.4954 98.8153 18.4952C98.8153 18.495 98.8152 18.4948 98.8152 18.4946C98.8152 18.4943 98.8152 18.4941 98.8151 18.4939C98.8151 18.4937 98.8151 18.4935 98.815 18.4933C98.815 18.4931 98.815 18.4929 98.8149 18.4926C98.8149 18.4924 98.8149 18.4922 98.8148 18.492C98.8148 18.4918 98.8148 18.4916 98.8148 18.4914C98.8147 18.4911 98.8147 18.4909 98.8147 18.4907C98.8146 18.4905 98.8146 18.4903 98.8146 18.4901C98.8145 18.4899 98.8145 18.4897 98.8145 18.4894C98.8144 18.4892 98.8144 18.489 98.8144 18.4888C98.8144 18.4886 98.8143 18.4884 98.8143 18.4882C98.8143 18.4879 98.8142 18.4877 98.8142 18.4875C98.8142 18.4873 98.8141 18.4871 98.8141 18.4869C98.8141 18.4867 98.8141 18.4864 98.814 18.4862C98.814 18.486 98.814 18.4858 98.8139 18.4856C98.8139 18.4854 98.8139 18.4852 98.8138 18.485C98.8138 18.4847 98.8138 18.4845 98.8137 18.4843C98.8137 18.4841 98.8137 18.4839 98.8137 18.4837C98.8136 18.4835 98.8136 18.4832 98.8136 18.483C98.8135 18.4828 98.8135 18.4826 98.8135 18.4824C98.8134 18.4822 98.8134 18.482 98.8134 18.4817C98.8134 18.4815 98.8133 18.4813 98.8133 18.4811C98.8133 18.4809 98.8132 18.4807 98.8132 18.4805C98.8132 18.4803 98.8131 18.48 98.8131 18.4798C98.8131 18.4796 98.813 18.4794 98.813 18.4792C98.813 18.479 98.813 18.4788 98.8129 18.4785C98.8129 18.4783 98.8129 18.4781 98.8128 18.4779C98.8128 18.4777 98.8128 18.4775 98.8127 18.4773C98.8127 18.477 98.8127 18.4768 98.8126 18.4766C98.8126 18.4764 98.8126 18.4762 98.8126 18.476C98.8125 18.4758 98.8125 18.4756 98.8125 18.4753C98.8124 18.4751 98.8124 18.4749 98.8124 18.4747C98.8123 18.4745 98.8123 18.4743 98.8123 18.4741C98.8123 18.4738 98.8122 18.4736 98.8122 18.4734C98.8122 18.4732 98.8121 18.473 98.8121 18.4728C98.8121 18.4726 98.812 18.4723 98.812 18.4721C98.812 18.4719 98.8119 18.4717 98.8119 18.4715C98.8119 18.4713 98.8119 18.4711 98.8118 18.4709C98.8118 18.4706 98.8118 18.4704 98.8117 18.4702C98.8117 18.47 98.8117 18.4698 98.8116 18.4696C98.8116 18.4694 98.8116 18.4691 98.8116 18.4689C98.8115 18.4687 98.8115 18.4685 98.8115 18.4683C98.8114 18.4681 98.8114 18.4679 98.8114 18.4676C98.8113 18.4674 98.8113 18.4672 98.8113 18.467C98.8112 18.4668 98.8112 18.4666 98.8112 18.4664C98.8112 18.4662 98.8111 18.4659 98.8111 18.4657C98.8111 18.4655 98.811 18.4653 98.811 18.4651C98.811 18.4649 98.8109 18.4647 98.8109 18.4644C98.8109 18.4642 98.8108 18.464 98.8108 18.4638C98.8108 18.4636 98.8108 18.4634 98.8107 18.4632C98.8107 18.4629 98.8107 18.4627 98.8106 18.4625C98.8106 18.4623 98.8106 18.4621 98.8105 18.4619C98.8105 18.4617 98.8105 18.4615 98.8105 18.4612C98.8104 18.461 98.8104 18.4608 98.8104 18.4606C98.8103 18.4604 98.8103 18.4602 98.8103 18.46C98.8102 18.4597 98.8102 18.4595 98.8102 18.4593C98.8101 18.4591 98.8101 18.4589 98.8101 18.4587C98.8101 18.4585 98.81 18.4582 98.81 18.458C98.81 18.4578 98.8099 18.4576 98.8099 18.4574C98.8099 18.4572 98.8098 18.457 98.8098 18.4568C98.8098 18.4565 98.8097 18.4563 98.8097 18.4561C98.8097 18.4559 98.8097 18.4557 98.8096 18.4555C98.8096 18.4553 98.8096 18.455 98.8095 18.4548C98.8095 18.4546 98.8095 18.4544 98.8094 18.4542C98.8094 18.454 98.8094 18.4538 98.8094 18.4535C98.8093 18.4533 98.8093 18.4531 98.8093 18.4529C98.8092 18.4527 98.8092 18.4525 98.8092 18.4523C98.8091 18.4521 98.8091 18.4518 98.8091 18.4516C98.809 18.4514 98.809 18.4512 98.809 18.451C98.809 18.4508 98.8089 18.4506 98.8089 18.4503C98.8089 18.4501 98.8088 18.4499 98.8088 18.4497C98.8088 18.4495 98.8087 18.4493 98.8087 18.4491C98.8087 18.4488 98.8087 18.4486 98.8086 18.4484C98.8086 18.4482 98.8086 18.448 98.8085 18.4478C98.8085 18.4476 98.8085 18.4474 98.8084 18.4471C98.8084 18.4469 98.8084 18.4467 98.8083 18.4465C98.8083 18.4463 98.8083 18.4461 98.8083 18.4459C98.8082 18.4456 98.8082 18.4454 98.8082 18.4452C98.8081 18.445 98.8081 18.4448 98.8081 18.4446C98.808 18.4444 98.808 18.4441 98.808 18.4439C98.8079 18.4437 98.8079 18.4435 98.8079 18.4433C98.8079 18.4431 98.8078 18.4429 98.8078 18.4427C98.8078 18.4424 98.8077 18.4422 98.8077 18.442C98.8077 18.4418 98.8076 18.4416 98.8076 18.4414C98.8076 18.4412 98.8076 18.4409 98.8075 18.4407C98.8075 18.4405 98.8075 18.4403 98.8074 18.4401C98.8074 18.4399 98.8074 18.4397 98.8073 18.4394C98.8073 18.4392 98.8073 18.439 98.8072 18.4388C98.8072 18.4386 98.8072 18.4384 98.8072 18.4382C98.8071 18.438 98.8071 18.4377 98.8071 18.4375C98.807 18.4373 98.807 18.4371 98.807 18.4369C98.8069 18.4367 98.8069 18.4365 98.8069 18.4362C98.8069 18.436 98.8068 18.4358 98.8068 18.4356C98.8068 18.4354 98.8067 18.4352 98.8067 18.435C98.8067 18.4347 98.8066 18.4345 98.8066 18.4343C98.8066 18.4341 98.8065 18.4339 98.8065 18.4337C98.8065 18.4335 98.8065 18.4333 98.8064 18.433C98.8064 18.4328 98.8064 18.4326 98.8063 18.4324C98.8063 18.4322 98.8063 18.432 98.8062 18.4318C98.8062 18.4315 98.8062 18.4313 98.8061 18.4311C98.8061 18.4309 98.8061 18.4307 98.8061 18.4305C98.806 18.4303 98.806 18.43 98.806 18.4298C98.8059 18.4296 98.8059 18.4294 98.8059 18.4292C98.8058 18.429 98.8058 18.4288 98.8058 18.4286C98.8058 18.4283 98.8057 18.4281 98.8057 18.4279C98.8057 18.4277 98.8056 18.4275 98.8056 18.4273C98.8056 18.4271 98.8055 18.4268 98.8055 18.4266C98.8055 18.4264 98.8054 18.4262 98.8054 18.426C98.8054 18.4258 98.8054 18.4256 98.8053 18.4253C98.8053 18.4251 98.8053 18.4249 98.8052 18.4247C98.8052 18.4245 98.8052 18.4243 98.8051 18.4241C98.8051 18.4239 98.8051 18.4236 98.805 18.4234C98.805 18.4232 98.805 18.423 98.805 18.4228C98.8049 18.4226 98.8049 18.4224 98.8049 18.4221C98.8048 18.4219 98.8048 18.4217 98.8048 18.4215C98.8047 18.4213 98.8047 18.4211 98.8047 18.4209C98.8047 18.4206 98.8046 18.4204 98.8046 18.4202C98.8046 18.42 98.8045 18.4198 98.8045 18.4196C98.8045 18.4194 98.8044 18.4192 98.8044 18.4189C98.8044 18.4187 98.8043 18.4185 98.8043 18.4183C98.8043 18.4181 98.8043 18.4179 98.8042 18.4177C98.8042 18.4174 98.8042 18.4172 98.8041 18.417C98.8041 18.4168 98.8041 18.4166 98.804 18.4164C98.804 18.4162 98.804 18.416 98.804 18.4157C98.8039 18.4155 98.8039 18.4153 98.8039 18.4151C98.8038 18.4149 98.8038 18.4147 98.8038 18.4145C98.8037 18.4142 98.8037 18.414 98.8037 18.4138C98.8036 18.4136 98.8036 18.4134 98.8036 18.4132C98.8036 18.413 98.8035 18.4127 98.8035 18.4125C98.8035 18.4123 98.8034 18.4121 98.8034 18.4119C98.8034 18.4117 98.8033 18.4115 98.8033 18.4113C98.8033 18.411 98.8032 18.4108 98.8032 18.4106C98.8032 18.4104 98.8032 18.4102 98.8031 18.41C98.8031 18.4098 98.8031 18.4095 98.803 18.4093C98.803 18.4091 98.803 18.4089 98.8029 18.4087C98.8029 18.4085 98.8029 18.4083 98.8029 18.408C98.8028 18.4078 98.8028 18.4076 98.8028 18.4074C98.8027 18.4072 98.8027 18.407 98.8027 18.4068C98.8026 18.4066 98.8026 18.4063 98.8026 18.4061C98.8025 18.4059 98.8025 18.4057 98.8025 18.4055C98.8025 18.4053 98.8024 18.4051 98.8024 18.4048C98.8024 18.4046 98.8023 18.4044 98.8023 18.4042C98.8023 18.404 98.8022 18.4038 98.8022 18.4036C98.8022 18.4033 98.8022 18.4031 98.8021 18.4029C98.8021 18.4027 98.8021 18.4025 98.802 18.4023C98.802 18.4021 98.802 18.4019 98.8019 18.4016C98.8019 18.4014 98.8019 18.4012 98.8018 18.401C98.8018 18.4008 98.8018 18.4006 98.8018 18.4004C98.8017 18.4001 98.8017 18.3999 98.8017 18.3997C98.8016 18.3995 98.8016 18.3993 98.8016 18.3991C98.8015 18.3989 98.8015 18.3986 98.8015 18.3984C98.8014 18.3982 98.8014 18.398 98.8014 18.3978C98.8014 18.3976 98.8013 18.3974 98.8013 18.3972C98.8013 18.3969 98.8012 18.3967 98.8012 18.3965C98.8012 18.3963 98.8011 18.3961 98.8011 18.3959C98.8011 18.3957 98.8011 18.3954 98.801 18.3952C98.801 18.395 98.801 18.3948 98.8009 18.3946C98.8009 18.3944 98.8009 18.3942 98.8008 18.3939C98.8008 18.3937 98.8008 18.3935 98.8007 18.3933C98.8007 18.3931 98.8007 18.3929 98.8007 18.3927C98.8006 18.3925 98.8006 18.3922 98.8006 18.392C98.8005 18.3918 98.8005 18.3916 98.8005 18.3914C98.8004 18.3912 98.8004 18.391 98.8004 18.3907C98.8004 18.3905 98.8003 18.3903 98.8003 18.3901C98.8003 18.3899 98.8002 18.3897 98.8002 18.3895C98.8002 18.3892 98.8001 18.389 98.8001 18.3888C98.8001 18.3886 98.8 18.3884 98.8 18.3882C98.8 18.388 98.8 18.3878 98.7999 18.3875C98.7999 18.3873 98.7999 18.3871 98.7998 18.3869C98.7998 18.3867 98.7998 18.3865 98.7997 18.3863C98.7997 18.386 98.7997 18.3858 98.7996 18.3856C98.7996 18.3854 98.7996 18.3852 98.7996 18.385C98.7995 18.3848 98.7995 18.3845 98.7995 18.3843C98.7994 18.3841 98.7994 18.3839 98.7994 18.3837C98.7993 18.3835 98.7993 18.3833 98.7993 18.3831C98.7993 18.3828 98.7992 18.3826 98.7992 18.3824C98.7992 18.3822 98.7991 18.382 98.7991 18.3818C98.7991 18.3816 98.799 18.3813 98.799 18.3811C98.799 18.3809 98.7989 18.3807 98.7989 18.3805C98.7989 18.3803 98.7989 18.3801 98.7988 18.3798C98.7988 18.3796 98.7988 18.3794 98.7987 18.3792C98.7987 18.379 98.7987 18.3788 98.7986 18.3786C98.7986 18.3784 98.7986 18.3781 98.7985 18.3779C98.7985 18.3777 98.7985 18.3775 98.7985 18.3773C98.7984 18.3771 98.7984 18.3769 98.7984 18.3766C98.7983 18.3764 98.7983 18.3762 98.7983 18.376C98.7982 18.3758 98.7982 18.3756 98.7982 18.3754C98.7982 18.3751 98.7981 18.3749 98.7981 18.3747C98.7981 18.3745 98.798 18.3743 98.798 18.3741C98.798 18.3739 98.7979 18.3737 98.7979 18.3734C98.7979 18.3732 98.7978 18.373 98.7978 18.3728C98.7978 18.3726 98.7978 18.3724 98.7977 18.3722C98.7977 18.3719 98.7977 18.3717 98.7976 18.3715C98.7976 18.3713 98.7976 18.3711 98.7975 18.3709C98.7975 18.3707 98.7975 18.3704 98.7975 18.3702C98.7974 18.37 98.7974 18.3698 98.7974 18.3696C98.7973 18.3694 98.7973 18.3692 98.7973 18.369C98.7972 18.3687 98.7972 18.3685 98.7972 18.3683C98.7971 18.3681 98.7971 18.3679 98.7971 18.3677C98.7971 18.3675 98.797 18.3672 98.797 18.367C98.797 18.3668 98.7969 18.3666 98.7969 18.3664C98.7969 18.3662 98.7968 18.366 98.7968 18.3657C98.7968 18.3655 98.7967 18.3653 98.7967 18.3651C98.7967 18.3649 98.7967 18.3647 98.7966 18.3645C98.7966 18.3643 98.7966 18.364 98.7965 18.3638C98.7965 18.3636 98.7965 18.3634 98.7964 18.3632C98.7964 18.363 98.7964 18.3628 98.7964 18.3625C98.7963 18.3623 98.7963 18.3621 98.7963 18.3619C98.7962 18.3617 98.7962 18.3615 98.7962 18.3613C98.7961 18.361 98.7961 18.3608 98.7961 18.3606C98.796 18.3604 98.796 18.3602 98.796 18.36C98.796 18.3598 98.7959 18.3596 98.7959 18.3593C98.7959 18.3591 98.7958 18.3589 98.7958 18.3587C98.7958 18.3585 98.7957 18.3583 98.7957 18.3581C98.7957 18.3578 98.7957 18.3576 98.7956 18.3574C98.7956 18.3572 98.7956 18.357 98.7955 18.3568C98.7955 18.3566 98.7955 18.3563 98.7954 18.3561C98.7954 18.3559 98.7954 18.3557 98.7953 18.3555C98.7953 18.3553 98.7953 18.3551 98.7953 18.3549C98.7952 18.3546 98.7952 18.3544 98.7952 18.3542C98.7951 18.354 98.7951 18.3538 98.7951 18.3536C98.795 18.3534 98.795 18.3531 98.795 18.3529C98.7949 18.3527 98.7949 18.3525 98.7949 18.3523C98.7949 18.3521 98.7948 18.3519 98.7948 18.3516C98.7948 18.3514 98.7947 18.3512 98.7947 18.351C98.7947 18.3508 98.7946 18.3506 98.7946 18.3504L95.8248 18.7746ZM95.877 19.1372C95.8772 19.1384 95.88 19.1565 95.88 19.1953H98.88C98.88 19.0154 98.8672 18.8304 98.8362 18.644L95.877 19.1372ZM95.88 19.1953C95.88 20.6092 95.6946 21.9638 95.3272 23.2639L98.2141 24.0798C98.6592 22.5049 98.88 20.8752 98.88 19.1953H95.88ZM95.3242 23.2745C94.9679 24.5716 94.4563 25.7854 93.7898 26.9199L96.3764 28.4395C97.1787 27.074 97.7921 25.6159 98.217 24.0692L95.3242 23.2745ZM93.7898 26.9199C93.1193 28.0612 92.3222 29.0927 91.3975 30.0175L93.5188 32.1388C94.6253 31.0323 95.5782 29.7982 96.3764 28.4395L93.7898 26.9199ZM91.3975 30.0175C90.4727 30.9422 89.4412 31.7393 88.2999 32.4098L89.8195 34.9964C91.1782 34.1982 92.4123 33.2453 93.5188 32.1388L91.3975 30.0175ZM88.2999 32.4098C87.1636 33.0774 85.9385 33.5981 84.6205 33.9706L85.4364 36.8575C86.9933 36.4175 88.4558 35.7976 89.8195 34.9964L88.2999 32.4098ZM84.6311 33.9677C83.3449 34.321 81.9945 34.5 80.5753 34.5V37.5C82.2499 37.5 83.8683 37.2884 85.4258 36.8605L84.6311 33.9677ZM80.5753 34.5C79.1562 34.5 77.7965 34.321 76.4921 33.9666L75.7054 36.8616C77.276 37.2884 78.9007 37.5 80.5753 37.5V34.5ZM76.5108 33.9718C75.2082 33.5996 73.9894 33.0788 72.8508 32.4098L71.3311 34.9964C72.6925 35.7962 74.1455 36.416 75.6867 36.8563L76.5108 33.9718ZM72.8508 32.4098C71.7095 31.7393 70.6779 30.9422 69.7532 30.0175L67.6318 32.1388C68.7383 33.2453 69.9724 34.1982 71.3311 34.9964L72.8508 32.4098ZM69.7532 30.0175C68.8284 29.0927 68.0313 28.0612 67.3608 26.9199L64.7742 28.4395C65.5724 29.7982 66.5254 31.0323 67.6318 32.1388L69.7532 30.0175ZM67.3608 26.9199C66.6919 25.7812 66.171 24.5624 65.7988 23.2598L62.9143 24.084C63.3546 25.6251 63.9744 27.0782 64.7742 28.4395L67.3608 26.9199ZM65.8041 23.2785C65.4496 21.9741 65.2706 20.6145 65.2706 19.1953H62.2706C62.2706 20.8699 62.4823 22.4947 62.9091 24.0652L65.8041 23.2785ZM65.2706 19.1953C65.2706 17.7761 65.4496 16.4258 65.803 15.1396L62.9102 14.3448C62.4823 15.9024 62.2706 17.5208 62.2706 19.1953H65.2706ZM65.8 15.1501C66.1725 13.8321 66.6933 12.607 67.3608 11.4708L64.7742 9.95111C63.973 11.3148 63.3531 12.7773 62.9131 14.3343L65.8 15.1501ZM67.3608 11.4708C68.0313 10.3295 68.8284 9.29794 69.7532 8.37316L67.6318 6.25184C66.5254 7.35831 65.5724 8.59241 64.7742 9.95111L67.3608 11.4708ZM69.7532 8.37316C70.6779 7.44838 71.7095 6.65133 72.8508 5.98082L71.3311 3.39418C69.9724 4.19242 68.7383 5.14537 67.6318 6.25184L69.7532 8.37316ZM72.8508 5.98082C73.9852 5.31431 75.1991 4.80274 76.4961 4.44641L75.7014 1.55359C74.1547 1.97851 72.6966 2.59194 71.3311 3.39418L72.8508 5.98082ZM76.5067 4.44346C77.8068 4.07604 79.1614 3.89062 80.5753 3.89062V0.890625C78.8954 0.890625 77.2657 1.11146 75.6908 1.55654L76.5067 4.44346ZM80.5753 3.89062C82.7407 3.89062 84.7388 4.29817 86.5862 5.102L87.7832 2.35112C85.5368 1.37371 83.1287 0.890625 80.5753 0.890625V3.89062ZM86.5862 5.102C88.4597 5.91717 90.0873 7.03443 91.4806 8.45614L93.6232 6.35636C91.954 4.65307 90.0035 3.31721 87.7832 2.35112L86.5862 5.102ZM91.5609 6.28018L90.975 6.7958L92.9569 9.04795L93.5428 8.53232L91.5609 6.28018ZM90.9812 6.79042L87.1843 10.0951L89.1539 12.358L92.9507 9.05333L90.9812 6.79042ZM89.204 10.1408C88.07 9.05991 86.7676 8.21053 85.3066 7.59442L84.1409 10.3587C85.2736 10.8363 86.2682 11.487 87.1342 12.3124L89.204 10.1408ZM85.3126 7.59698C83.8332 6.96553 82.2486 6.65625 80.5753 6.65625V9.65625C81.8707 9.65625 83.0518 9.89384 84.1349 10.3561L85.3126 7.59698ZM80.5753 6.65625C78.8634 6.65625 77.2312 6.98394 75.6934 7.64555L76.8791 10.4013C78.0288 9.90668 79.256 9.65625 80.5753 9.65625V6.65625ZM75.6934 7.64555C74.1812 8.29618 72.849 9.1909 71.71 10.33L73.8313 12.4513C74.6922 11.5904 75.7038 10.9069 76.8791 10.4013L75.6934 7.64555ZM71.71 10.33C70.5709 11.469 69.6762 12.8012 69.0256 14.3134L71.7813 15.4991C72.2869 14.3238 72.9704 13.3122 73.8313 12.4513L71.71 10.33ZM69.0281 14.3076C68.3631 15.8353 68.0363 17.47 68.0363 19.1953H71.0363C71.0363 17.8581 71.2875 16.6335 71.7788 15.5049L69.0281 14.3076ZM68.0363 19.1953C68.0363 20.9073 68.3639 22.5394 69.0256 24.0772L71.7813 22.8916C71.2867 21.7419 71.0363 20.5146 71.0363 19.1953H68.0363ZM69.0256 24.0772C69.6762 25.5895 70.5709 26.9216 71.71 28.0607L73.8313 25.9393C72.9704 25.0784 72.2869 24.0668 71.7813 22.8916L69.0256 24.0772ZM71.71 28.0607C72.849 29.1997 74.1812 30.0944 75.6934 30.7451L76.8791 27.9893C75.7038 27.4837 74.6922 26.8003 73.8313 25.9393L71.71 28.0607ZM75.6934 30.7451C77.2312 31.4067 78.8634 31.7344 80.5753 31.7344V28.7344C79.256 28.7344 78.0288 28.4839 76.8791 27.9893L75.6934 30.7451ZM80.5753 31.7344C81.7582 31.7344 82.9017 31.5752 83.9998 31.2512L83.1508 28.3738C82.3427 28.6123 81.4862 28.7344 80.5753 28.7344V31.7344ZM84.0148 31.2467C85.103 30.9132 86.1208 30.454 87.0635 29.8671L85.4778 27.3204C84.7642 27.7647 83.9851 28.1181 83.1358 28.3783L84.0148 31.2467ZM87.0528 29.8737C88.0152 29.2855 88.8753 28.5784 89.6284 27.7536L87.4129 25.7308C86.8535 26.3435 86.2135 26.8707 85.4885 27.3138L87.0528 29.8737ZM89.6164 27.7665C90.3741 26.9559 91.0188 26.0641 91.5484 25.0933L88.9147 23.6567C88.5068 24.4046 88.0109 25.0909 87.4248 25.7179L89.6164 27.7665ZM90.2316 22.875H80.5753V25.875H90.2316V22.875ZM82.0753 24.375V22.1016H79.0753V24.375H82.0753ZM82.0753 22.1016V18.5625H79.0753V22.1016H82.0753ZM80.5753 20.0625H94.3097V17.0625H80.5753V20.0625ZM94.3097 20.0625H97.3097V17.0625H94.3097V20.0625ZM122.609 2.39062H124.109V0.890625H122.609V2.39062ZM122.609 8.64844V10.1484H124.109V8.64844H122.609ZM108.687 8.64844V7.14844H107.187V8.64844H108.687ZM108.687 16.1484H107.187V17.6484H108.687V16.1484ZM122.609 16.1484H124.109V14.6484H122.609V16.1484ZM122.609 22.2422V23.7422H124.109V22.2422H122.609ZM108.687 22.2422V20.7422H107.187V22.2422H108.687ZM108.687 29.7422H107.187V31.2422H108.687V29.7422ZM122.609 29.7422H124.109V28.2422H122.609V29.7422ZM122.609 36V37.5H124.109V36H122.609ZM102.429 36H100.929V37.5H102.429V36ZM102.429 2.39062V0.890625H100.929V2.39062H102.429ZM121.109 2.39062V8.64844H124.109V2.39062H121.109ZM122.609 7.14844H108.687V10.1484H122.609V7.14844ZM107.187 8.64844V16.1484H110.187V8.64844H107.187ZM108.687 17.6484H122.609V14.6484H108.687V17.6484ZM121.109 16.1484V22.2422H124.109V16.1484H121.109ZM122.609 20.7422H108.687V23.7422H122.609V20.7422ZM107.187 22.2422V29.7422H110.187V22.2422H107.187ZM108.687 31.2422H122.609V28.2422H108.687V31.2422ZM121.109 29.7422V36H124.109V29.7422H121.109ZM122.609 34.5H102.429V37.5H122.609V34.5ZM103.929 36V2.39062H100.929V36H103.929ZM102.429 3.89062H122.609V0.890625H102.429V3.89062ZM155.783 2.39062H157.283V0.890625H155.783V2.39062ZM155.783 36V37.5H157.283V36H155.783ZM149.666 36L148.414 36.8259L148.859 37.5H149.666V36ZM135.135 13.9688L136.387 13.1429L133.635 8.97023V13.9688H135.135ZM135.135 36V37.5H136.635V36H135.135ZM128.901 36H127.401V37.5H128.901V36ZM128.901 2.39062V0.890625H127.401V2.39062H128.901ZM134.994 2.39062L136.254 1.57553L135.81 0.890625H134.994V2.39062ZM149.362 24.5859L148.102 25.401L150.862 29.6636V24.5859H149.362ZM149.362 2.39062V0.890625H147.862V2.39062H149.362ZM154.283 2.39062V36H157.283V2.39062H154.283ZM155.783 34.5H149.666V37.5H155.783V34.5ZM150.918 35.1741L136.387 13.1429L133.883 14.7946L148.414 36.8259L150.918 35.1741ZM133.635 13.9688V36H136.635V13.9688H133.635ZM135.135 34.5H128.901V37.5H135.135V34.5ZM130.401 36V2.39062H127.401V36H130.401ZM128.901 3.89062H134.994V0.890625H128.901V3.89062ZM133.735 3.20572L148.102 25.401L150.621 23.7708L136.254 1.57553L133.735 3.20572ZM150.862 24.5859V2.39062H147.862V24.5859H150.862ZM149.362 3.89062H155.783V0.890625H149.362V3.89062Z" fill="url(#paint0_linear)"/>
</g>
<defs>
<linearGradient id="paint0_linear" x1="3" y1="16.2219" x2="162.319" y2="16.2219" gradientUnits="userSpaceOnUse">
<stop stop-color="#FFB7C5"/>
<stop offset="1" stop-color="#FF5C7C"/>
</linearGradient>
<clipPath id="clip0">
<rect width="158" height="38" fill="white"/>
</clipPath>
</defs>
</svg>
