<svg width="154" height="38" viewBox="0 0 154 38" fill="none" xmlns="http://www.w3.org/2000/svg">
<g clip-path="url(#clip0)">
<path d="M29.2266 2.39062L30.5613 3.07501L31.6813 0.890625H29.2266V2.39062ZM22.1484 16.1953L20.8193 16.8906L22.1618 19.4569L23.4832 16.8797L22.1484 16.1953ZM18.7031 9.60938L17.372 8.91789L17.0115 9.6118L17.374 10.3047L18.7031 9.60938ZM22.4531 2.39062V0.890625H21.542L21.122 1.69914L22.4531 2.39062ZM9.91406 2.39062L11.2339 1.6779L10.8088 0.890625H9.91406V2.39062ZM11.1797 4.73438L12.5174 4.05574L12.5087 4.03858L12.4995 4.02165L11.1797 4.73438ZM19.3125 20.7656H20.8125V20.4069L20.6502 20.087L19.3125 20.7656ZM19.3125 36V37.5H20.8125V36H19.3125ZM12.8906 36H11.3906V37.5H12.8906V36ZM12.8906 21.3984H14.3906V21.0315L14.2213 20.706L12.8906 21.3984ZM3 2.39062V0.890625H0.528563L1.66936 3.08302L3 2.39062ZM27.8918 1.70624L20.8137 15.5109L23.4832 16.8797L30.5613 3.07501L27.8918 1.70624ZM23.4776 15.5L20.0322 8.91407L17.374 10.3047L20.8193 16.8906L23.4776 15.5ZM20.0342 10.3009L23.7842 3.08211L21.122 1.69914L17.372 8.91789L20.0342 10.3009ZM22.4531 3.89062H29.2266V0.890625H22.4531V3.89062ZM8.5942 3.10335L9.85983 5.4471L12.4995 4.02165L11.2339 1.6779L8.5942 3.10335ZM9.84198 5.41301L17.9748 21.4443L20.6502 20.087L12.5174 4.05574L9.84198 5.41301ZM17.8125 20.7656V36H20.8125V20.7656H17.8125ZM19.3125 34.5H12.8906V37.5H19.3125V34.5ZM14.3906 36V21.3984H11.3906V36H14.3906ZM14.2213 20.706L4.33064 1.69823L1.66936 3.08302L11.56 22.0908L14.2213 20.706ZM3 3.89062H9.91406V0.890625H3V3.89062ZM51.5156 2.39062V0.890625H50.0156V2.39062H51.5156ZM57.7734 2.39062H59.2734V0.890625H57.7734V2.39062ZM56.7891 28.5L55.4148 27.8988L55.4118 27.9056L56.7891 28.5ZM54.1406 32.3906L53.0874 31.3225L53.08 31.33L54.1406 32.3906ZM50.2266 35.0391L50.8209 36.4163L50.8278 36.4133L50.2266 35.0391ZM40.6406 35.0391L40.0341 36.411L40.0428 36.4148L40.0515 36.4185L40.6406 35.0391ZM34.1016 28.5L32.7221 29.0891L32.7258 29.0979L32.7297 29.1065L34.1016 28.5ZM33.1406 2.39062V0.890625H31.6406V2.39062H33.1406ZM39.3984 2.39062H40.8984V0.890625H39.3984V2.39062ZM39.8672 26.2031L38.487 26.7905L38.4922 26.8028L38.4977 26.815L39.8672 26.2031ZM51.0234 26.2031L49.6539 25.5912L49.6485 25.6035L49.6432 25.6158L51.0234 26.2031ZM51.5156 3.89062H57.7734V0.890625H51.5156V3.89062ZM56.2734 2.39062V23.6953H59.2734V2.39062H56.2734ZM56.2734 23.6953C56.2734 25.2 55.9848 26.596 55.4148 27.8988L58.1633 29.1012C58.9058 27.404 59.2734 25.5969 59.2734 23.6953H56.2734ZM55.4118 27.9056C54.8459 29.2169 54.0717 30.352 53.0874 31.3226L55.1938 33.4587C56.4595 32.2105 57.451 30.7518 58.1663 29.0944L55.4118 27.9056ZM53.08 31.33C52.1086 32.3014 50.9616 33.0802 49.6253 33.6648L50.8278 36.4133C52.4916 35.6854 53.9539 34.6986 55.2013 33.4513L53.08 31.33ZM49.6322 33.6618C48.3455 34.2172 46.9551 34.5 45.4453 34.5V37.5C47.3417 37.5 49.1389 37.1422 50.8209 36.4163L49.6322 33.6618ZM45.4453 34.5C43.9356 34.5 42.5353 34.2172 41.2298 33.6596L40.0515 36.4185C41.7459 37.1422 43.5488 37.5 45.4453 37.5V34.5ZM41.2472 33.6672C39.9261 33.0831 38.7846 32.304 37.8107 31.33L35.6893 33.4513C36.9341 34.696 38.3864 35.6825 40.0341 36.411L41.2472 33.6672ZM37.8107 31.33C36.8367 30.356 36.0575 29.2145 35.4735 27.8935L32.7297 29.1065C33.4581 30.7542 34.4446 32.2065 35.6893 33.4513L37.8107 31.33ZM35.481 27.9109C34.9234 26.6053 34.6406 25.2051 34.6406 23.6953H31.6406C31.6406 25.5918 31.9984 27.3947 32.7221 29.0891L35.481 27.9109ZM34.6406 23.6953V2.39062H31.6406V23.6953H34.6406ZM33.1406 3.89062H39.3984V0.890625H33.1406V3.89062ZM37.8984 2.39062V23.8359H40.8984V2.39062H37.8984ZM37.8984 23.8359C37.8984 24.8698 38.091 25.8599 38.487 26.7905L41.2474 25.6158C41.0184 25.0776 40.8984 24.4896 40.8984 23.8359H37.8984ZM38.4977 26.815C38.8975 27.7098 39.4375 28.5041 40.119 29.1857L42.2403 27.0643C41.8281 26.6521 41.4932 26.1652 41.2367 25.5912L38.4977 26.815ZM40.119 29.1857C40.8061 29.8727 41.6088 30.409 42.5142 30.7943L43.6889 28.0338C43.1255 27.7941 42.647 27.471 42.2403 27.0643L40.119 29.1857ZM42.5142 30.7943C43.4413 31.1888 44.4231 31.3828 45.4453 31.3828V28.3828C44.8113 28.3828 44.2305 28.2643 43.6889 28.0338L42.5142 30.7943ZM45.4453 31.3828C46.4792 31.3828 47.4692 31.1903 48.3998 30.7943L47.2252 28.0338C46.687 28.2628 46.099 28.3828 45.4453 28.3828V31.3828ZM48.3998 30.7943C49.3052 30.409 50.1079 29.8727 50.795 29.1857L48.6737 27.0643C48.2671 27.471 47.7885 27.7941 47.2252 28.0338L48.3998 30.7943ZM50.795 29.1857C51.4821 28.4986 52.0184 27.6959 52.4037 26.7905L49.6432 25.6158C49.4035 26.1791 49.0804 26.6577 48.6737 27.0643L50.795 29.1857ZM52.393 26.815C52.8113 25.8787 53.0156 24.88 53.0156 23.8359H50.0156C50.0156 24.4794 49.8918 25.0588 49.6539 25.5912L52.393 26.815ZM53.0156 23.8359V2.39062H50.0156V23.8359H53.0156ZM94.4297 18.5625L95.9146 18.3504L95.7306 17.0625H94.4297V18.5625ZM94.4766 18.8906L92.9916 19.1028L92.9941 19.12L92.997 19.1372L94.4766 18.8906ZM93.8906 23.6719L92.4471 23.2639L92.4442 23.2745L93.8906 23.6719ZM82.1484 35.4141L82.5458 36.8605L82.5564 36.8575L82.1484 35.4141ZM73.2188 35.4141L72.8067 36.8563L72.816 36.859L72.8254 36.8616L73.2188 35.4141ZM61.4766 23.6719L60.0291 24.0652L60.0316 24.0746L60.0343 24.084L61.4766 23.6719ZM61.4766 14.7422L60.0331 14.3342L60.0302 14.3448L61.4766 14.7422ZM73.2188 3L73.6161 4.44645L73.6267 4.44346L73.2188 3ZM89.6719 7.40625L90.6628 8.53232L91.851 7.48674L90.7432 6.35636L89.6719 7.40625ZM89.0859 7.92188L90.0707 9.05335L90.0769 9.04795L89.0859 7.92188ZM85.2891 11.2266L84.2542 12.3124L85.2432 13.2551L86.2738 12.358L85.2891 11.2266ZM81.8438 8.97656L81.2549 10.3562L81.2609 10.3587L81.8438 8.97656ZM67.5234 14.9062L68.8988 15.5049L68.9013 15.4991L67.5234 14.9062ZM80.6953 29.8125L81.1198 31.2512L81.1273 31.249L81.1348 31.2467L80.6953 29.8125ZM83.3906 28.5938L82.6084 27.3138L82.5978 27.3204L83.3906 28.5938ZM85.6406 26.7422L84.5448 25.7179L84.5388 25.7243L84.5329 25.7308L85.6406 26.7422ZM87.3516 24.375L88.6684 25.0933L89.8784 22.875H87.3516V24.375ZM77.6953 24.375H76.1953V25.875H77.6953V24.375ZM77.6953 18.5625V17.0625H76.1953V18.5625H77.6953ZM92.9448 18.7746C92.9448 18.7748 92.9448 18.7751 92.9449 18.7753C92.9449 18.7755 92.9449 18.7757 92.9449 18.7759C92.945 18.7761 92.945 18.7763 92.945 18.7766C92.9451 18.7768 92.9451 18.777 92.9451 18.7772C92.9452 18.7774 92.9452 18.7776 92.9452 18.7778C92.9453 18.778 92.9453 18.7783 92.9453 18.7785C92.9453 18.7787 92.9454 18.7789 92.9454 18.7791C92.9454 18.7793 92.9455 18.7795 92.9455 18.7798C92.9455 18.78 92.9456 18.7802 92.9456 18.7804C92.9456 18.7806 92.9456 18.7808 92.9457 18.781C92.9457 18.7813 92.9457 18.7815 92.9458 18.7817C92.9458 18.7819 92.9458 18.7821 92.9459 18.7823C92.9459 18.7825 92.9459 18.7827 92.946 18.783C92.946 18.7832 92.946 18.7834 92.946 18.7836C92.9461 18.7838 92.9461 18.784 92.9461 18.7842C92.9462 18.7845 92.9462 18.7847 92.9462 18.7849C92.9463 18.7851 92.9463 18.7853 92.9463 18.7855C92.9464 18.7857 92.9464 18.786 92.9464 18.7862C92.9464 18.7864 92.9465 18.7866 92.9465 18.7868C92.9465 18.787 92.9466 18.7872 92.9466 18.7874C92.9466 18.7877 92.9467 18.7879 92.9467 18.7881C92.9467 18.7883 92.9467 18.7885 92.9468 18.7887C92.9468 18.7889 92.9468 18.7892 92.9469 18.7894C92.9469 18.7896 92.9469 18.7898 92.947 18.79C92.947 18.7902 92.947 18.7904 92.9471 18.7907C92.9471 18.7909 92.9471 18.7911 92.9471 18.7913C92.9472 18.7915 92.9472 18.7917 92.9472 18.7919C92.9473 18.7921 92.9473 18.7924 92.9473 18.7926C92.9474 18.7928 92.9474 18.793 92.9474 18.7932C92.9474 18.7934 92.9475 18.7936 92.9475 18.7939C92.9475 18.7941 92.9476 18.7943 92.9476 18.7945C92.9476 18.7947 92.9477 18.7949 92.9477 18.7951C92.9477 18.7954 92.9478 18.7956 92.9478 18.7958C92.9478 18.796 92.9478 18.7962 92.9479 18.7964C92.9479 18.7966 92.9479 18.7968 92.948 18.7971C92.948 18.7973 92.948 18.7975 92.9481 18.7977C92.9481 18.7979 92.9481 18.7981 92.9482 18.7983C92.9482 18.7986 92.9482 18.7988 92.9482 18.799C92.9483 18.7992 92.9483 18.7994 92.9483 18.7996C92.9484 18.7998 92.9484 18.8001 92.9484 18.8003C92.9485 18.8005 92.9485 18.8007 92.9485 18.8009C92.9485 18.8011 92.9486 18.8013 92.9486 18.8015C92.9486 18.8018 92.9487 18.802 92.9487 18.8022C92.9487 18.8024 92.9488 18.8026 92.9488 18.8028C92.9488 18.803 92.9489 18.8033 92.9489 18.8035C92.9489 18.8037 92.9489 18.8039 92.949 18.8041C92.949 18.8043 92.949 18.8045 92.9491 18.8048C92.9491 18.805 92.9491 18.8052 92.9492 18.8054C92.9492 18.8056 92.9492 18.8058 92.9492 18.806C92.9493 18.8062 92.9493 18.8065 92.9493 18.8067C92.9494 18.8069 92.9494 18.8071 92.9494 18.8073C92.9495 18.8075 92.9495 18.8077 92.9495 18.808C92.9496 18.8082 92.9496 18.8084 92.9496 18.8086C92.9496 18.8088 92.9497 18.809 92.9497 18.8092C92.9497 18.8095 92.9498 18.8097 92.9498 18.8099C92.9498 18.8101 92.9499 18.8103 92.9499 18.8105C92.9499 18.8107 92.95 18.8109 92.95 18.8112C92.95 18.8114 92.95 18.8116 92.9501 18.8118C92.9501 18.812 92.9501 18.8122 92.9502 18.8124C92.9502 18.8127 92.9502 18.8129 92.9503 18.8131C92.9503 18.8133 92.9503 18.8135 92.9503 18.8137C92.9504 18.8139 92.9504 18.8142 92.9504 18.8144C92.9505 18.8146 92.9505 18.8148 92.9505 18.815C92.9506 18.8152 92.9506 18.8154 92.9506 18.8156C92.9507 18.8159 92.9507 18.8161 92.9507 18.8163C92.9507 18.8165 92.9508 18.8167 92.9508 18.8169C92.9508 18.8171 92.9509 18.8174 92.9509 18.8176C92.9509 18.8178 92.951 18.818 92.951 18.8182C92.951 18.8184 92.951 18.8186 92.9511 18.8189C92.9511 18.8191 92.9511 18.8193 92.9512 18.8195C92.9512 18.8197 92.9512 18.8199 92.9513 18.8201C92.9513 18.8203 92.9513 18.8206 92.9514 18.8208C92.9514 18.821 92.9514 18.8212 92.9514 18.8214C92.9515 18.8216 92.9515 18.8218 92.9515 18.8221C92.9516 18.8223 92.9516 18.8225 92.9516 18.8227C92.9517 18.8229 92.9517 18.8231 92.9517 18.8233C92.9518 18.8236 92.9518 18.8238 92.9518 18.824C92.9518 18.8242 92.9519 18.8244 92.9519 18.8246C92.9519 18.8248 92.952 18.825 92.952 18.8253C92.952 18.8255 92.9521 18.8257 92.9521 18.8259C92.9521 18.8261 92.9521 18.8263 92.9522 18.8265C92.9522 18.8268 92.9522 18.827 92.9523 18.8272C92.9523 18.8274 92.9523 18.8276 92.9524 18.8278C92.9524 18.828 92.9524 18.8283 92.9525 18.8285C92.9525 18.8287 92.9525 18.8289 92.9525 18.8291C92.9526 18.8293 92.9526 18.8295 92.9526 18.8297C92.9527 18.83 92.9527 18.8302 92.9527 18.8304C92.9528 18.8306 92.9528 18.8308 92.9528 18.831C92.9529 18.8312 92.9529 18.8315 92.9529 18.8317C92.9529 18.8319 92.953 18.8321 92.953 18.8323C92.953 18.8325 92.9531 18.8327 92.9531 18.833C92.9531 18.8332 92.9532 18.8334 92.9532 18.8336C92.9532 18.8338 92.9532 18.834 92.9533 18.8342C92.9533 18.8344 92.9533 18.8347 92.9534 18.8349C92.9534 18.8351 92.9534 18.8353 92.9535 18.8355C92.9535 18.8357 92.9535 18.8359 92.9536 18.8362C92.9536 18.8364 92.9536 18.8366 92.9536 18.8368C92.9537 18.837 92.9537 18.8372 92.9537 18.8374C92.9538 18.8377 92.9538 18.8379 92.9538 18.8381C92.9539 18.8383 92.9539 18.8385 92.9539 18.8387C92.9539 18.8389 92.954 18.8391 92.954 18.8394C92.954 18.8396 92.9541 18.8398 92.9541 18.84C92.9541 18.8402 92.9542 18.8404 92.9542 18.8406C92.9542 18.8409 92.9543 18.8411 92.9543 18.8413C92.9543 18.8415 92.9543 18.8417 92.9544 18.8419C92.9544 18.8421 92.9544 18.8424 92.9545 18.8426C92.9545 18.8428 92.9545 18.843 92.9546 18.8432C92.9546 18.8434 92.9546 18.8436 92.9547 18.8438C92.9547 18.8441 92.9547 18.8443 92.9547 18.8445C92.9548 18.8447 92.9548 18.8449 92.9548 18.8451C92.9549 18.8453 92.9549 18.8456 92.9549 18.8458C92.955 18.846 92.955 18.8462 92.955 18.8464C92.955 18.8466 92.9551 18.8468 92.9551 18.847C92.9551 18.8473 92.9552 18.8475 92.9552 18.8477C92.9552 18.8479 92.9553 18.8481 92.9553 18.8483C92.9553 18.8485 92.9554 18.8488 92.9554 18.849C92.9554 18.8492 92.9554 18.8494 92.9555 18.8496C92.9555 18.8498 92.9555 18.85 92.9556 18.8503C92.9556 18.8505 92.9556 18.8507 92.9557 18.8509C92.9557 18.8511 92.9557 18.8513 92.9557 18.8515C92.9558 18.8517 92.9558 18.852 92.9558 18.8522C92.9559 18.8524 92.9559 18.8526 92.9559 18.8528C92.956 18.853 92.956 18.8532 92.956 18.8535C92.9561 18.8537 92.9561 18.8539 92.9561 18.8541C92.9561 18.8543 92.9562 18.8545 92.9562 18.8547C92.9562 18.855 92.9563 18.8552 92.9563 18.8554C92.9563 18.8556 92.9564 18.8558 92.9564 18.856C92.9564 18.8562 92.9565 18.8564 92.9565 18.8567C92.9565 18.8569 92.9565 18.8571 92.9566 18.8573C92.9566 18.8575 92.9566 18.8577 92.9567 18.8579C92.9567 18.8582 92.9567 18.8584 92.9568 18.8586C92.9568 18.8588 92.9568 18.859 92.9568 18.8592C92.9569 18.8594 92.9569 18.8597 92.9569 18.8599C92.957 18.8601 92.957 18.8603 92.957 18.8605C92.9571 18.8607 92.9571 18.8609 92.9571 18.8611C92.9572 18.8614 92.9572 18.8616 92.9572 18.8618C92.9572 18.862 92.9573 18.8622 92.9573 18.8624C92.9573 18.8626 92.9574 18.8629 92.9574 18.8631C92.9574 18.8633 92.9575 18.8635 92.9575 18.8637C92.9575 18.8639 92.9576 18.8641 92.9576 18.8644C92.9576 18.8646 92.9576 18.8648 92.9577 18.865C92.9577 18.8652 92.9577 18.8654 92.9578 18.8656C92.9578 18.8658 92.9578 18.8661 92.9579 18.8663C92.9579 18.8665 92.9579 18.8667 92.9579 18.8669C92.958 18.8671 92.958 18.8673 92.958 18.8676C92.9581 18.8678 92.9581 18.868 92.9581 18.8682C92.9582 18.8684 92.9582 18.8686 92.9582 18.8688C92.9583 18.8691 92.9583 18.8693 92.9583 18.8695C92.9583 18.8697 92.9584 18.8699 92.9584 18.8701C92.9584 18.8703 92.9585 18.8705 92.9585 18.8708C92.9585 18.871 92.9586 18.8712 92.9586 18.8714C92.9586 18.8716 92.9586 18.8718 92.9587 18.872C92.9587 18.8723 92.9587 18.8725 92.9588 18.8727C92.9588 18.8729 92.9588 18.8731 92.9589 18.8733C92.9589 18.8735 92.9589 18.8738 92.959 18.874C92.959 18.8742 92.959 18.8744 92.959 18.8746C92.9591 18.8748 92.9591 18.875 92.9591 18.8752C92.9592 18.8755 92.9592 18.8757 92.9592 18.8759C92.9593 18.8761 92.9593 18.8763 92.9593 18.8765C92.9594 18.8767 92.9594 18.877 92.9594 18.8772C92.9594 18.8774 92.9595 18.8776 92.9595 18.8778C92.9595 18.878 92.9596 18.8782 92.9596 18.8785C92.9596 18.8787 92.9597 18.8789 92.9597 18.8791C92.9597 18.8793 92.9597 18.8795 92.9598 18.8797C92.9598 18.8799 92.9598 18.8802 92.9599 18.8804C92.9599 18.8806 92.9599 18.8808 92.96 18.881C92.96 18.8812 92.96 18.8814 92.9601 18.8817C92.9601 18.8819 92.9601 18.8821 92.9601 18.8823C92.9602 18.8825 92.9602 18.8827 92.9602 18.8829C92.9603 18.8832 92.9603 18.8834 92.9603 18.8836C92.9604 18.8838 92.9604 18.884 92.9604 18.8842C92.9604 18.8844 92.9605 18.8846 92.9605 18.8849C92.9605 18.8851 92.9606 18.8853 92.9606 18.8855C92.9606 18.8857 92.9607 18.8859 92.9607 18.8861C92.9607 18.8864 92.9608 18.8866 92.9608 18.8868C92.9608 18.887 92.9608 18.8872 92.9609 18.8874C92.9609 18.8876 92.9609 18.8879 92.961 18.8881C92.961 18.8883 92.961 18.8885 92.9611 18.8887C92.9611 18.8889 92.9611 18.8891 92.9612 18.8893C92.9612 18.8896 92.9612 18.8898 92.9612 18.89C92.9613 18.8902 92.9613 18.8904 92.9613 18.8906C92.9614 18.8908 92.9614 18.8911 92.9614 18.8913C92.9615 18.8915 92.9615 18.8917 92.9615 18.8919C92.9615 18.8921 92.9616 18.8923 92.9616 18.8926C92.9616 18.8928 92.9617 18.893 92.9617 18.8932C92.9617 18.8934 92.9618 18.8936 92.9618 18.8938C92.9618 18.894 92.9619 18.8943 92.9619 18.8945C92.9619 18.8947 92.9619 18.8949 92.962 18.8951C92.962 18.8953 92.962 18.8955 92.9621 18.8958C92.9621 18.896 92.9621 18.8962 92.9622 18.8964C92.9622 18.8966 92.9622 18.8968 92.9622 18.897C92.9623 18.8973 92.9623 18.8975 92.9623 18.8977C92.9624 18.8979 92.9624 18.8981 92.9624 18.8983C92.9625 18.8985 92.9625 18.8987 92.9625 18.899C92.9626 18.8992 92.9626 18.8994 92.9626 18.8996C92.9626 18.8998 92.9627 18.9 92.9627 18.9002C92.9627 18.9005 92.9628 18.9007 92.9628 18.9009C92.9628 18.9011 92.9629 18.9013 92.9629 18.9015C92.9629 18.9017 92.963 18.902 92.963 18.9022C92.963 18.9024 92.963 18.9026 92.9631 18.9028C92.9631 18.903 92.9631 18.9032 92.9632 18.9034C92.9632 18.9037 92.9632 18.9039 92.9633 18.9041C92.9633 18.9043 92.9633 18.9045 92.9633 18.9047C92.9634 18.9049 92.9634 18.9052 92.9634 18.9054C92.9635 18.9056 92.9635 18.9058 92.9635 18.906C92.9636 18.9062 92.9636 18.9064 92.9636 18.9067C92.9637 18.9069 92.9637 18.9071 92.9637 18.9073C92.9637 18.9075 92.9638 18.9077 92.9638 18.9079C92.9638 18.9081 92.9639 18.9084 92.9639 18.9086C92.9639 18.9088 92.964 18.909 92.964 18.9092C92.964 18.9094 92.9641 18.9096 92.9641 18.9099C92.9641 18.9101 92.9641 18.9103 92.9642 18.9105C92.9642 18.9107 92.9642 18.9109 92.9643 18.9111C92.9643 18.9114 92.9643 18.9116 92.9644 18.9118C92.9644 18.912 92.9644 18.9122 92.9644 18.9124C92.9645 18.9126 92.9645 18.9128 92.9645 18.9131C92.9646 18.9133 92.9646 18.9135 92.9646 18.9137C92.9647 18.9139 92.9647 18.9141 92.9647 18.9143C92.9648 18.9146 92.9648 18.9148 92.9648 18.915C92.9648 18.9152 92.9649 18.9154 92.9649 18.9156C92.9649 18.9158 92.965 18.916 92.965 18.9163C92.965 18.9165 92.9651 18.9167 92.9651 18.9169C92.9651 18.9171 92.9651 18.9173 92.9652 18.9175C92.9652 18.9178 92.9652 18.918 92.9653 18.9182C92.9653 18.9184 92.9653 18.9186 92.9654 18.9188C92.9654 18.919 92.9654 18.9193 92.9655 18.9195C92.9655 18.9197 92.9655 18.9199 92.9655 18.9201C92.9656 18.9203 92.9656 18.9205 92.9656 18.9207C92.9657 18.921 92.9657 18.9212 92.9657 18.9214C92.9658 18.9216 92.9658 18.9218 92.9658 18.922C92.9659 18.9222 92.9659 18.9225 92.9659 18.9227C92.9659 18.9229 92.966 18.9231 92.966 18.9233C92.966 18.9235 92.9661 18.9237 92.9661 18.924C92.9661 18.9242 92.9662 18.9244 92.9662 18.9246C92.9662 18.9248 92.9662 18.925 92.9663 18.9252C92.9663 18.9254 92.9663 18.9257 92.9664 18.9259C92.9664 18.9261 92.9664 18.9263 92.9665 18.9265C92.9665 18.9267 92.9665 18.9269 92.9666 18.9272C92.9666 18.9274 92.9666 18.9276 92.9666 18.9278C92.9667 18.928 92.9667 18.9282 92.9667 18.9284C92.9668 18.9287 92.9668 18.9289 92.9668 18.9291C92.9669 18.9293 92.9669 18.9295 92.9669 18.9297C92.9669 18.9299 92.967 18.9301 92.967 18.9304C92.967 18.9306 92.9671 18.9308 92.9671 18.931C92.9671 18.9312 92.9672 18.9314 92.9672 18.9316C92.9672 18.9319 92.9673 18.9321 92.9673 18.9323C92.9673 18.9325 92.9673 18.9327 92.9674 18.9329C92.9674 18.9331 92.9674 18.9334 92.9675 18.9336C92.9675 18.9338 92.9675 18.934 92.9676 18.9342C92.9676 18.9344 92.9676 18.9346 92.9677 18.9348C92.9677 18.9351 92.9677 18.9353 92.9677 18.9355C92.9678 18.9357 92.9678 18.9359 92.9678 18.9361C92.9679 18.9363 92.9679 18.9366 92.9679 18.9368C92.968 18.937 92.968 18.9372 92.968 18.9374C92.968 18.9376 92.9681 18.9378 92.9681 18.9381C92.9681 18.9383 92.9682 18.9385 92.9682 18.9387C92.9682 18.9389 92.9683 18.9391 92.9683 18.9393C92.9683 18.9395 92.9684 18.9398 92.9684 18.94C92.9684 18.9402 92.9684 18.9404 92.9685 18.9406C92.9685 18.9408 92.9685 18.941 92.9686 18.9413C92.9686 18.9415 92.9686 18.9417 92.9687 18.9419C92.9687 18.9421 92.9687 18.9423 92.9688 18.9425C92.9688 18.9428 92.9688 18.943 92.9688 18.9432C92.9689 18.9434 92.9689 18.9436 92.9689 18.9438C92.969 18.944 92.969 18.9442 92.969 18.9445C92.9691 18.9447 92.9691 18.9449 92.9691 18.9451C92.9691 18.9453 92.9692 18.9455 92.9692 18.9457C92.9692 18.946 92.9693 18.9462 92.9693 18.9464C92.9693 18.9466 92.9694 18.9468 92.9694 18.947C92.9694 18.9472 92.9695 18.9475 92.9695 18.9477C92.9695 18.9479 92.9695 18.9481 92.9696 18.9483C92.9696 18.9485 92.9696 18.9487 92.9697 18.9489C92.9697 18.9492 92.9697 18.9494 92.9698 18.9496C92.9698 18.9498 92.9698 18.95 92.9698 18.9502C92.9699 18.9504 92.9699 18.9507 92.9699 18.9509C92.97 18.9511 92.97 18.9513 92.97 18.9515C92.9701 18.9517 92.9701 18.9519 92.9701 18.9522C92.9702 18.9524 92.9702 18.9526 92.9702 18.9528C92.9702 18.953 92.9703 18.9532 92.9703 18.9534C92.9703 18.9536 92.9704 18.9539 92.9704 18.9541C92.9704 18.9543 92.9705 18.9545 92.9705 18.9547C92.9705 18.9549 92.9706 18.9551 92.9706 18.9554C92.9706 18.9556 92.9706 18.9558 92.9707 18.956C92.9707 18.9562 92.9707 18.9564 92.9708 18.9566C92.9708 18.9569 92.9708 18.9571 92.9709 18.9573C92.9709 18.9575 92.9709 18.9577 92.9709 18.9579C92.971 18.9581 92.971 18.9583 92.971 18.9586C92.9711 18.9588 92.9711 18.959 92.9711 18.9592C92.9712 18.9594 92.9712 18.9596 92.9712 18.9598C92.9713 18.9601 92.9713 18.9603 92.9713 18.9605C92.9713 18.9607 92.9714 18.9609 92.9714 18.9611C92.9714 18.9613 92.9715 18.9616 92.9715 18.9618C92.9715 18.962 92.9716 18.9622 92.9716 18.9624C92.9716 18.9626 92.9716 18.9628 92.9717 18.963C92.9717 18.9633 92.9717 18.9635 92.9718 18.9637C92.9718 18.9639 92.9718 18.9641 92.9719 18.9643C92.9719 18.9645 92.9719 18.9648 92.972 18.965C92.972 18.9652 92.972 18.9654 92.972 18.9656C92.9721 18.9658 92.9721 18.966 92.9721 18.9663C92.9722 18.9665 92.9722 18.9667 92.9722 18.9669C92.9723 18.9671 92.9723 18.9673 92.9723 18.9675C92.9724 18.9677 92.9724 18.968 92.9724 18.9682C92.9724 18.9684 92.9725 18.9686 92.9725 18.9688C92.9725 18.969 92.9726 18.9692 92.9726 18.9695C92.9726 18.9697 92.9727 18.9699 92.9727 18.9701C92.9727 18.9703 92.9727 18.9705 92.9728 18.9707C92.9728 18.971 92.9728 18.9712 92.9729 18.9714C92.9729 18.9716 92.9729 18.9718 92.973 18.972C92.973 18.9722 92.973 18.9724 92.9731 18.9727C92.9731 18.9729 92.9731 18.9731 92.9731 18.9733C92.9732 18.9735 92.9732 18.9737 92.9732 18.9739C92.9733 18.9742 92.9733 18.9744 92.9733 18.9746C92.9734 18.9748 92.9734 18.975 92.9734 18.9752C92.9734 18.9754 92.9735 18.9757 92.9735 18.9759C92.9735 18.9761 92.9736 18.9763 92.9736 18.9765C92.9736 18.9767 92.9737 18.9769 92.9737 18.9771C92.9737 18.9774 92.9738 18.9776 92.9738 18.9778C92.9738 18.978 92.9738 18.9782 92.9739 18.9784C92.9739 18.9786 92.9739 18.9789 92.974 18.9791C92.974 18.9793 92.974 18.9795 92.9741 18.9797C92.9741 18.9799 92.9741 18.9801 92.9742 18.9804C92.9742 18.9806 92.9742 18.9808 92.9742 18.981C92.9743 18.9812 92.9743 18.9814 92.9743 18.9816C92.9744 18.9818 92.9744 18.9821 92.9744 18.9823C92.9745 18.9825 92.9745 18.9827 92.9745 18.9829C92.9745 18.9831 92.9746 18.9833 92.9746 18.9836C92.9746 18.9838 92.9747 18.984 92.9747 18.9842C92.9747 18.9844 92.9748 18.9846 92.9748 18.9848C92.9748 18.9851 92.9749 18.9853 92.9749 18.9855C92.9749 18.9857 92.9749 18.9859 92.975 18.9861C92.975 18.9863 92.975 18.9865 92.9751 18.9868C92.9751 18.987 92.9751 18.9872 92.9752 18.9874C92.9752 18.9876 92.9752 18.9878 92.9753 18.988C92.9753 18.9883 92.9753 18.9885 92.9753 18.9887C92.9754 18.9889 92.9754 18.9891 92.9754 18.9893C92.9755 18.9895 92.9755 18.9897 92.9755 18.99C92.9756 18.9902 92.9756 18.9904 92.9756 18.9906C92.9756 18.9908 92.9757 18.991 92.9757 18.9912C92.9757 18.9915 92.9758 18.9917 92.9758 18.9919C92.9758 18.9921 92.9759 18.9923 92.9759 18.9925C92.9759 18.9927 92.976 18.993 92.976 18.9932C92.976 18.9934 92.976 18.9936 92.9761 18.9938C92.9761 18.994 92.9761 18.9942 92.9762 18.9944C92.9762 18.9947 92.9762 18.9949 92.9763 18.9951C92.9763 18.9953 92.9763 18.9955 92.9763 18.9957C92.9764 18.9959 92.9764 18.9962 92.9764 18.9964C92.9765 18.9966 92.9765 18.9968 92.9765 18.997C92.9766 18.9972 92.9766 18.9974 92.9766 18.9977C92.9767 18.9979 92.9767 18.9981 92.9767 18.9983C92.9767 18.9985 92.9768 18.9987 92.9768 18.9989C92.9768 18.9991 92.9769 18.9994 92.9769 18.9996C92.9769 18.9998 92.977 19 92.977 19.0002C92.977 19.0004 92.9771 19.0006 92.9771 19.0009C92.9771 19.0011 92.9771 19.0013 92.9772 19.0015C92.9772 19.0017 92.9772 19.0019 92.9773 19.0021C92.9773 19.0024 92.9773 19.0026 92.9774 19.0028C92.9774 19.003 92.9774 19.0032 92.9774 19.0034C92.9775 19.0036 92.9775 19.0038 92.9775 19.0041C92.9776 19.0043 92.9776 19.0045 92.9776 19.0047C92.9777 19.0049 92.9777 19.0051 92.9777 19.0053C92.9778 19.0056 92.9778 19.0058 92.9778 19.006C92.9778 19.0062 92.9779 19.0064 92.9779 19.0066C92.9779 19.0068 92.978 19.0071 92.978 19.0073C92.978 19.0075 92.9781 19.0077 92.9781 19.0079C92.9781 19.0081 92.9781 19.0083 92.9782 19.0085C92.9782 19.0088 92.9782 19.009 92.9783 19.0092C92.9783 19.0094 92.9783 19.0096 92.9784 19.0098C92.9784 19.01 92.9784 19.0103 92.9785 19.0105C92.9785 19.0107 92.9785 19.0109 92.9785 19.0111C92.9786 19.0113 92.9786 19.0115 92.9786 19.0118C92.9787 19.012 92.9787 19.0122 92.9787 19.0124C92.9788 19.0126 92.9788 19.0128 92.9788 19.013C92.9789 19.0132 92.9789 19.0135 92.9789 19.0137C92.9789 19.0139 92.979 19.0141 92.979 19.0143C92.979 19.0145 92.9791 19.0147 92.9791 19.015C92.9791 19.0152 92.9792 19.0154 92.9792 19.0156C92.9792 19.0158 92.9792 19.016 92.9793 19.0162C92.9793 19.0165 92.9793 19.0167 92.9794 19.0169C92.9794 19.0171 92.9794 19.0173 92.9795 19.0175C92.9795 19.0177 92.9795 19.0179 92.9796 19.0182C92.9796 19.0184 92.9796 19.0186 92.9796 19.0188C92.9797 19.019 92.9797 19.0192 92.9797 19.0194C92.9798 19.0197 92.9798 19.0199 92.9798 19.0201C92.9799 19.0203 92.9799 19.0205 92.9799 19.0207C92.9799 19.0209 92.98 19.0212 92.98 19.0214C92.98 19.0216 92.9801 19.0218 92.9801 19.022C92.9801 19.0222 92.9802 19.0224 92.9802 19.0226C92.9802 19.0229 92.9803 19.0231 92.9803 19.0233C92.9803 19.0235 92.9803 19.0237 92.9804 19.0239C92.9804 19.0241 92.9804 19.0244 92.9805 19.0246C92.9805 19.0248 92.9805 19.025 92.9806 19.0252C92.9806 19.0254 92.9806 19.0256 92.9807 19.0259C92.9807 19.0261 92.9807 19.0263 92.9807 19.0265C92.9808 19.0267 92.9808 19.0269 92.9808 19.0271C92.9809 19.0273 92.9809 19.0276 92.9809 19.0278C92.981 19.028 92.981 19.0282 92.981 19.0284C92.981 19.0286 92.9811 19.0288 92.9811 19.0291C92.9811 19.0293 92.9812 19.0295 92.9812 19.0297C92.9812 19.0299 92.9813 19.0301 92.9813 19.0303C92.9813 19.0306 92.9814 19.0308 92.9814 19.031C92.9814 19.0312 92.9814 19.0314 92.9815 19.0316C92.9815 19.0318 92.9815 19.032 92.9816 19.0323C92.9816 19.0325 92.9816 19.0327 92.9817 19.0329C92.9817 19.0331 92.9817 19.0333 92.9818 19.0335C92.9818 19.0338 92.9818 19.034 92.9818 19.0342C92.9819 19.0344 92.9819 19.0346 92.9819 19.0348C92.982 19.035 92.982 19.0353 92.982 19.0355C92.9821 19.0357 92.9821 19.0359 92.9821 19.0361C92.9821 19.0363 92.9822 19.0365 92.9822 19.0367C92.9822 19.037 92.9823 19.0372 92.9823 19.0374C92.9823 19.0376 92.9824 19.0378 92.9824 19.038C92.9824 19.0382 92.9825 19.0385 92.9825 19.0387C92.9825 19.0389 92.9825 19.0391 92.9826 19.0393C92.9826 19.0395 92.9826 19.0397 92.9827 19.04C92.9827 19.0402 92.9827 19.0404 92.9828 19.0406C92.9828 19.0408 92.9828 19.041 92.9828 19.0412C92.9829 19.0414 92.9829 19.0417 92.9829 19.0419C92.983 19.0421 92.983 19.0423 92.983 19.0425C92.9831 19.0427 92.9831 19.0429 92.9831 19.0432C92.9832 19.0434 92.9832 19.0436 92.9832 19.0438C92.9832 19.044 92.9833 19.0442 92.9833 19.0444C92.9833 19.0447 92.9834 19.0449 92.9834 19.0451C92.9834 19.0453 92.9835 19.0455 92.9835 19.0457C92.9835 19.0459 92.9836 19.0461 92.9836 19.0464C92.9836 19.0466 92.9836 19.0468 92.9837 19.047C92.9837 19.0472 92.9837 19.0474 92.9838 19.0476C92.9838 19.0479 92.9838 19.0481 92.9839 19.0483C92.9839 19.0485 92.9839 19.0487 92.9839 19.0489C92.984 19.0491 92.984 19.0494 92.984 19.0496C92.9841 19.0498 92.9841 19.05 92.9841 19.0502C92.9842 19.0504 92.9842 19.0506 92.9842 19.0508C92.9843 19.0511 92.9843 19.0513 92.9843 19.0515C92.9843 19.0517 92.9844 19.0519 92.9844 19.0521C92.9844 19.0523 92.9845 19.0526 92.9845 19.0528C92.9845 19.053 92.9846 19.0532 92.9846 19.0534C92.9846 19.0536 92.9846 19.0538 92.9847 19.0541C92.9847 19.0543 92.9847 19.0545 92.9848 19.0547C92.9848 19.0549 92.9848 19.0551 92.9849 19.0553C92.9849 19.0555 92.9849 19.0558 92.985 19.056C92.985 19.0562 92.985 19.0564 92.985 19.0566C92.9851 19.0568 92.9851 19.057 92.9851 19.0573C92.9852 19.0575 92.9852 19.0577 92.9852 19.0579C92.9853 19.0581 92.9853 19.0583 92.9853 19.0585C92.9854 19.0588 92.9854 19.059 92.9854 19.0592C92.9854 19.0594 92.9855 19.0596 92.9855 19.0598C92.9855 19.06 92.9856 19.0602 92.9856 19.0605C92.9856 19.0607 92.9857 19.0609 92.9857 19.0611C92.9857 19.0613 92.9857 19.0615 92.9858 19.0617C92.9858 19.062 92.9858 19.0622 92.9859 19.0624C92.9859 19.0626 92.9859 19.0628 92.986 19.063C92.986 19.0632 92.986 19.0634 92.9861 19.0637C92.9861 19.0639 92.9861 19.0641 92.9861 19.0643C92.9862 19.0645 92.9862 19.0647 92.9862 19.0649C92.9863 19.0652 92.9863 19.0654 92.9863 19.0656C92.9864 19.0658 92.9864 19.066 92.9864 19.0662C92.9865 19.0664 92.9865 19.0667 92.9865 19.0669C92.9865 19.0671 92.9866 19.0673 92.9866 19.0675C92.9866 19.0677 92.9867 19.0679 92.9867 19.0681C92.9867 19.0684 92.9868 19.0686 92.9868 19.0688C92.9868 19.069 92.9868 19.0692 92.9869 19.0694C92.9869 19.0696 92.9869 19.0699 92.987 19.0701C92.987 19.0703 92.987 19.0705 92.9871 19.0707C92.9871 19.0709 92.9871 19.0711 92.9872 19.0714C92.9872 19.0716 92.9872 19.0718 92.9872 19.072C92.9873 19.0722 92.9873 19.0724 92.9873 19.0726C92.9874 19.0728 92.9874 19.0731 92.9874 19.0733C92.9875 19.0735 92.9875 19.0737 92.9875 19.0739C92.9875 19.0741 92.9876 19.0743 92.9876 19.0746C92.9876 19.0748 92.9877 19.075 92.9877 19.0752C92.9877 19.0754 92.9878 19.0756 92.9878 19.0758C92.9878 19.0761 92.9879 19.0763 92.9879 19.0765C92.9879 19.0767 92.9879 19.0769 92.988 19.0771C92.988 19.0773 92.988 19.0775 92.9881 19.0778C92.9881 19.078 92.9881 19.0782 92.9882 19.0784C92.9882 19.0786 92.9882 19.0788 92.9883 19.079C92.9883 19.0793 92.9883 19.0795 92.9883 19.0797C92.9884 19.0799 92.9884 19.0801 92.9884 19.0803C92.9885 19.0805 92.9885 19.0808 92.9885 19.081C92.9886 19.0812 92.9886 19.0814 92.9886 19.0816C92.9886 19.0818 92.9887 19.082 92.9887 19.0822C92.9887 19.0825 92.9888 19.0827 92.9888 19.0829C92.9888 19.0831 92.9889 19.0833 92.9889 19.0835C92.9889 19.0837 92.989 19.084 92.989 19.0842C92.989 19.0844 92.989 19.0846 92.9891 19.0848C92.9891 19.085 92.9891 19.0852 92.9892 19.0855C92.9892 19.0857 92.9892 19.0859 92.9893 19.0861C92.9893 19.0863 92.9893 19.0865 92.9893 19.0867C92.9894 19.0869 92.9894 19.0872 92.9894 19.0874C92.9895 19.0876 92.9895 19.0878 92.9895 19.088C92.9896 19.0882 92.9896 19.0884 92.9896 19.0887C92.9897 19.0889 92.9897 19.0891 92.9897 19.0893C92.9897 19.0895 92.9898 19.0897 92.9898 19.0899C92.9898 19.0902 92.9899 19.0904 92.9899 19.0906C92.9899 19.0908 92.99 19.091 92.99 19.0912C92.99 19.0914 92.9901 19.0916 92.9901 19.0919C92.9901 19.0921 92.9901 19.0923 92.9902 19.0925C92.9902 19.0927 92.9902 19.0929 92.9903 19.0931C92.9903 19.0934 92.9903 19.0936 92.9904 19.0938C92.9904 19.094 92.9904 19.0942 92.9904 19.0944C92.9905 19.0946 92.9905 19.0949 92.9905 19.0951C92.9906 19.0953 92.9906 19.0955 92.9906 19.0957C92.9907 19.0959 92.9907 19.0961 92.9907 19.0963C92.9908 19.0966 92.9908 19.0968 92.9908 19.097C92.9908 19.0972 92.9909 19.0974 92.9909 19.0976C92.9909 19.0978 92.991 19.0981 92.991 19.0983C92.991 19.0985 92.9911 19.0987 92.9911 19.0989C92.9911 19.0991 92.9911 19.0993 92.9912 19.0996C92.9912 19.0998 92.9912 19.1 92.9913 19.1002C92.9913 19.1004 92.9913 19.1006 92.9914 19.1008C92.9914 19.101 92.9914 19.1013 92.9915 19.1015C92.9915 19.1017 92.9915 19.1019 92.9915 19.1021C92.9916 19.1023 92.9916 19.1025 92.9916 19.1028L95.9615 18.6785C95.9615 18.6783 95.9614 18.6781 95.9614 18.6779C95.9614 18.6776 95.9613 18.6774 95.9613 18.6772C95.9613 18.677 95.9612 18.6768 95.9612 18.6766C95.9612 18.6764 95.9612 18.6761 95.9611 18.6759C95.9611 18.6757 95.9611 18.6755 95.961 18.6753C95.961 18.6751 95.961 18.6749 95.9609 18.6746C95.9609 18.6744 95.9609 18.6742 95.9608 18.674C95.9608 18.6738 95.9608 18.6736 95.9608 18.6734C95.9607 18.6732 95.9607 18.6729 95.9607 18.6727C95.9606 18.6725 95.9606 18.6723 95.9606 18.6721C95.9605 18.6719 95.9605 18.6717 95.9605 18.6714C95.9604 18.6712 95.9604 18.671 95.9604 18.6708C95.9604 18.6706 95.9603 18.6704 95.9603 18.6702C95.9603 18.6699 95.9602 18.6697 95.9602 18.6695C95.9602 18.6693 95.9601 18.6691 95.9601 18.6689C95.9601 18.6687 95.9601 18.6685 95.96 18.6682C95.96 18.668 95.96 18.6678 95.9599 18.6676C95.9599 18.6674 95.9599 18.6672 95.9598 18.667C95.9598 18.6667 95.9598 18.6665 95.9597 18.6663C95.9597 18.6661 95.9597 18.6659 95.9597 18.6657C95.9596 18.6655 95.9596 18.6652 95.9596 18.665C95.9595 18.6648 95.9595 18.6646 95.9595 18.6644C95.9594 18.6642 95.9594 18.664 95.9594 18.6638C95.9594 18.6635 95.9593 18.6633 95.9593 18.6631C95.9593 18.6629 95.9592 18.6627 95.9592 18.6625C95.9592 18.6623 95.9591 18.662 95.9591 18.6618C95.9591 18.6616 95.959 18.6614 95.959 18.6612C95.959 18.661 95.959 18.6608 95.9589 18.6605C95.9589 18.6603 95.9589 18.6601 95.9588 18.6599C95.9588 18.6597 95.9588 18.6595 95.9587 18.6593C95.9587 18.6591 95.9587 18.6588 95.9586 18.6586C95.9586 18.6584 95.9586 18.6582 95.9586 18.658C95.9585 18.6578 95.9585 18.6576 95.9585 18.6573C95.9584 18.6571 95.9584 18.6569 95.9584 18.6567C95.9583 18.6565 95.9583 18.6563 95.9583 18.6561C95.9583 18.6558 95.9582 18.6556 95.9582 18.6554C95.9582 18.6552 95.9581 18.655 95.9581 18.6548C95.9581 18.6546 95.958 18.6544 95.958 18.6541C95.958 18.6539 95.9579 18.6537 95.9579 18.6535C95.9579 18.6533 95.9579 18.6531 95.9578 18.6529C95.9578 18.6526 95.9578 18.6524 95.9577 18.6522C95.9577 18.652 95.9577 18.6518 95.9576 18.6516C95.9576 18.6514 95.9576 18.6511 95.9576 18.6509C95.9575 18.6507 95.9575 18.6505 95.9575 18.6503C95.9574 18.6501 95.9574 18.6499 95.9574 18.6497C95.9573 18.6494 95.9573 18.6492 95.9573 18.649C95.9572 18.6488 95.9572 18.6486 95.9572 18.6484C95.9572 18.6482 95.9571 18.6479 95.9571 18.6477C95.9571 18.6475 95.957 18.6473 95.957 18.6471C95.957 18.6469 95.9569 18.6467 95.9569 18.6465C95.9569 18.6462 95.9568 18.646 95.9568 18.6458C95.9568 18.6456 95.9568 18.6454 95.9567 18.6452C95.9567 18.645 95.9567 18.6447 95.9566 18.6445C95.9566 18.6443 95.9566 18.6441 95.9565 18.6439C95.9565 18.6437 95.9565 18.6435 95.9565 18.6432C95.9564 18.643 95.9564 18.6428 95.9564 18.6426C95.9563 18.6424 95.9563 18.6422 95.9563 18.642C95.9562 18.6418 95.9562 18.6415 95.9562 18.6413C95.9561 18.6411 95.9561 18.6409 95.9561 18.6407C95.9561 18.6405 95.956 18.6403 95.956 18.64C95.956 18.6398 95.9559 18.6396 95.9559 18.6394C95.9559 18.6392 95.9558 18.639 95.9558 18.6388C95.9558 18.6385 95.9557 18.6383 95.9557 18.6381C95.9557 18.6379 95.9557 18.6377 95.9556 18.6375C95.9556 18.6373 95.9556 18.6371 95.9555 18.6368C95.9555 18.6366 95.9555 18.6364 95.9554 18.6362C95.9554 18.636 95.9554 18.6358 95.9554 18.6356C95.9553 18.6353 95.9553 18.6351 95.9553 18.6349C95.9552 18.6347 95.9552 18.6345 95.9552 18.6343C95.9551 18.6341 95.9551 18.6338 95.9551 18.6336C95.955 18.6334 95.955 18.6332 95.955 18.633C95.955 18.6328 95.9549 18.6326 95.9549 18.6324C95.9549 18.6321 95.9548 18.6319 95.9548 18.6317C95.9548 18.6315 95.9547 18.6313 95.9547 18.6311C95.9547 18.6309 95.9547 18.6306 95.9546 18.6304C95.9546 18.6302 95.9546 18.63 95.9545 18.6298C95.9545 18.6296 95.9545 18.6294 95.9544 18.6291C95.9544 18.6289 95.9544 18.6287 95.9543 18.6285C95.9543 18.6283 95.9543 18.6281 95.9543 18.6279C95.9542 18.6277 95.9542 18.6274 95.9542 18.6272C95.9541 18.627 95.9541 18.6268 95.9541 18.6266C95.954 18.6264 95.954 18.6262 95.954 18.6259C95.9539 18.6257 95.9539 18.6255 95.9539 18.6253C95.9539 18.6251 95.9538 18.6249 95.9538 18.6247C95.9538 18.6244 95.9537 18.6242 95.9537 18.624C95.9537 18.6238 95.9536 18.6236 95.9536 18.6234C95.9536 18.6232 95.9536 18.623 95.9535 18.6227C95.9535 18.6225 95.9535 18.6223 95.9534 18.6221C95.9534 18.6219 95.9534 18.6217 95.9533 18.6215C95.9533 18.6212 95.9533 18.621 95.9532 18.6208C95.9532 18.6206 95.9532 18.6204 95.9532 18.6202C95.9531 18.62 95.9531 18.6197 95.9531 18.6195C95.953 18.6193 95.953 18.6191 95.953 18.6189C95.9529 18.6187 95.9529 18.6185 95.9529 18.6183C95.9529 18.618 95.9528 18.6178 95.9528 18.6176C95.9528 18.6174 95.9527 18.6172 95.9527 18.617C95.9527 18.6168 95.9526 18.6165 95.9526 18.6163C95.9526 18.6161 95.9525 18.6159 95.9525 18.6157C95.9525 18.6155 95.9525 18.6153 95.9524 18.615C95.9524 18.6148 95.9524 18.6146 95.9523 18.6144C95.9523 18.6142 95.9523 18.614 95.9522 18.6138C95.9522 18.6136 95.9522 18.6133 95.9521 18.6131C95.9521 18.6129 95.9521 18.6127 95.9521 18.6125C95.952 18.6123 95.952 18.6121 95.952 18.6118C95.9519 18.6116 95.9519 18.6114 95.9519 18.6112C95.9518 18.611 95.9518 18.6108 95.9518 18.6106C95.9518 18.6103 95.9517 18.6101 95.9517 18.6099C95.9517 18.6097 95.9516 18.6095 95.9516 18.6093C95.9516 18.6091 95.9515 18.6089 95.9515 18.6086C95.9515 18.6084 95.9514 18.6082 95.9514 18.608C95.9514 18.6078 95.9514 18.6076 95.9513 18.6074C95.9513 18.6071 95.9513 18.6069 95.9512 18.6067C95.9512 18.6065 95.9512 18.6063 95.9511 18.6061C95.9511 18.6059 95.9511 18.6056 95.951 18.6054C95.951 18.6052 95.951 18.605 95.951 18.6048C95.9509 18.6046 95.9509 18.6044 95.9509 18.6042C95.9508 18.6039 95.9508 18.6037 95.9508 18.6035C95.9507 18.6033 95.9507 18.6031 95.9507 18.6029C95.9507 18.6027 95.9506 18.6024 95.9506 18.6022C95.9506 18.602 95.9505 18.6018 95.9505 18.6016C95.9505 18.6014 95.9504 18.6012 95.9504 18.6009C95.9504 18.6007 95.9503 18.6005 95.9503 18.6003C95.9503 18.6001 95.9503 18.5999 95.9502 18.5997C95.9502 18.5995 95.9502 18.5992 95.9501 18.599C95.9501 18.5988 95.9501 18.5986 95.95 18.5984C95.95 18.5982 95.95 18.598 95.95 18.5977C95.9499 18.5975 95.9499 18.5973 95.9499 18.5971C95.9498 18.5969 95.9498 18.5967 95.9498 18.5965C95.9497 18.5962 95.9497 18.596 95.9497 18.5958C95.9496 18.5956 95.9496 18.5954 95.9496 18.5952C95.9496 18.595 95.9495 18.5948 95.9495 18.5945C95.9495 18.5943 95.9494 18.5941 95.9494 18.5939C95.9494 18.5937 95.9493 18.5935 95.9493 18.5933C95.9493 18.593 95.9492 18.5928 95.9492 18.5926C95.9492 18.5924 95.9492 18.5922 95.9491 18.592C95.9491 18.5918 95.9491 18.5915 95.949 18.5913C95.949 18.5911 95.949 18.5909 95.9489 18.5907C95.9489 18.5905 95.9489 18.5903 95.9489 18.5901C95.9488 18.5898 95.9488 18.5896 95.9488 18.5894C95.9487 18.5892 95.9487 18.589 95.9487 18.5888C95.9486 18.5886 95.9486 18.5883 95.9486 18.5881C95.9485 18.5879 95.9485 18.5877 95.9485 18.5875C95.9485 18.5873 95.9484 18.5871 95.9484 18.5868C95.9484 18.5866 95.9483 18.5864 95.9483 18.5862C95.9483 18.586 95.9482 18.5858 95.9482 18.5856C95.9482 18.5854 95.9482 18.5851 95.9481 18.5849C95.9481 18.5847 95.9481 18.5845 95.948 18.5843C95.948 18.5841 95.948 18.5839 95.9479 18.5836C95.9479 18.5834 95.9479 18.5832 95.9478 18.583C95.9478 18.5828 95.9478 18.5826 95.9478 18.5824C95.9477 18.5821 95.9477 18.5819 95.9477 18.5817C95.9476 18.5815 95.9476 18.5813 95.9476 18.5811C95.9475 18.5809 95.9475 18.5807 95.9475 18.5804C95.9474 18.5802 95.9474 18.58 95.9474 18.5798C95.9474 18.5796 95.9473 18.5794 95.9473 18.5792C95.9473 18.5789 95.9472 18.5787 95.9472 18.5785C95.9472 18.5783 95.9471 18.5781 95.9471 18.5779C95.9471 18.5777 95.9471 18.5774 95.947 18.5772C95.947 18.577 95.947 18.5768 95.9469 18.5766C95.9469 18.5764 95.9469 18.5762 95.9468 18.576C95.9468 18.5757 95.9468 18.5755 95.9467 18.5753C95.9467 18.5751 95.9467 18.5749 95.9467 18.5747C95.9466 18.5745 95.9466 18.5742 95.9466 18.574C95.9465 18.5738 95.9465 18.5736 95.9465 18.5734C95.9464 18.5732 95.9464 18.573 95.9464 18.5728C95.9464 18.5725 95.9463 18.5723 95.9463 18.5721C95.9463 18.5719 95.9462 18.5717 95.9462 18.5715C95.9462 18.5713 95.9461 18.571 95.9461 18.5708C95.9461 18.5706 95.946 18.5704 95.946 18.5702C95.946 18.57 95.946 18.5698 95.9459 18.5695C95.9459 18.5693 95.9459 18.5691 95.9458 18.5689C95.9458 18.5687 95.9458 18.5685 95.9457 18.5683C95.9457 18.5681 95.9457 18.5678 95.9456 18.5676C95.9456 18.5674 95.9456 18.5672 95.9456 18.567C95.9455 18.5668 95.9455 18.5666 95.9455 18.5663C95.9454 18.5661 95.9454 18.5659 95.9454 18.5657C95.9453 18.5655 95.9453 18.5653 95.9453 18.5651C95.9453 18.5648 95.9452 18.5646 95.9452 18.5644C95.9452 18.5642 95.9451 18.564 95.9451 18.5638C95.9451 18.5636 95.945 18.5634 95.945 18.5631C95.945 18.5629 95.9449 18.5627 95.9449 18.5625C95.9449 18.5623 95.9449 18.5621 95.9448 18.5619C95.9448 18.5616 95.9448 18.5614 95.9447 18.5612C95.9447 18.561 95.9447 18.5608 95.9446 18.5606C95.9446 18.5604 95.9446 18.5601 95.9445 18.5599C95.9445 18.5597 95.9445 18.5595 95.9445 18.5593C95.9444 18.5591 95.9444 18.5589 95.9444 18.5587C95.9443 18.5584 95.9443 18.5582 95.9443 18.558C95.9442 18.5578 95.9442 18.5576 95.9442 18.5574C95.9442 18.5572 95.9441 18.5569 95.9441 18.5567C95.9441 18.5565 95.944 18.5563 95.944 18.5561C95.944 18.5559 95.9439 18.5557 95.9439 18.5554C95.9439 18.5552 95.9438 18.555 95.9438 18.5548C95.9438 18.5546 95.9438 18.5544 95.9437 18.5542C95.9437 18.554 95.9437 18.5537 95.9436 18.5535C95.9436 18.5533 95.9436 18.5531 95.9435 18.5529C95.9435 18.5527 95.9435 18.5525 95.9435 18.5522C95.9434 18.552 95.9434 18.5518 95.9434 18.5516C95.9433 18.5514 95.9433 18.5512 95.9433 18.551C95.9432 18.5507 95.9432 18.5505 95.9432 18.5503C95.9431 18.5501 95.9431 18.5499 95.9431 18.5497C95.9431 18.5495 95.943 18.5493 95.943 18.549C95.943 18.5488 95.9429 18.5486 95.9429 18.5484C95.9429 18.5482 95.9428 18.548 95.9428 18.5478C95.9428 18.5475 95.9427 18.5473 95.9427 18.5471C95.9427 18.5469 95.9427 18.5467 95.9426 18.5465C95.9426 18.5463 95.9426 18.546 95.9425 18.5458C95.9425 18.5456 95.9425 18.5454 95.9424 18.5452C95.9424 18.545 95.9424 18.5448 95.9424 18.5446C95.9423 18.5443 95.9423 18.5441 95.9423 18.5439C95.9422 18.5437 95.9422 18.5435 95.9422 18.5433C95.9421 18.5431 95.9421 18.5428 95.9421 18.5426C95.942 18.5424 95.942 18.5422 95.942 18.542C95.942 18.5418 95.9419 18.5416 95.9419 18.5413C95.9419 18.5411 95.9418 18.5409 95.9418 18.5407C95.9418 18.5405 95.9417 18.5403 95.9417 18.5401C95.9417 18.5399 95.9417 18.5396 95.9416 18.5394C95.9416 18.5392 95.9416 18.539 95.9415 18.5388C95.9415 18.5386 95.9415 18.5384 95.9414 18.5381C95.9414 18.5379 95.9414 18.5377 95.9413 18.5375C95.9413 18.5373 95.9413 18.5371 95.9413 18.5369C95.9412 18.5366 95.9412 18.5364 95.9412 18.5362C95.9411 18.536 95.9411 18.5358 95.9411 18.5356C95.941 18.5354 95.941 18.5352 95.941 18.5349C95.9409 18.5347 95.9409 18.5345 95.9409 18.5343C95.9409 18.5341 95.9408 18.5339 95.9408 18.5337C95.9408 18.5334 95.9407 18.5332 95.9407 18.533C95.9407 18.5328 95.9406 18.5326 95.9406 18.5324C95.9406 18.5322 95.9406 18.5319 95.9405 18.5317C95.9405 18.5315 95.9405 18.5313 95.9404 18.5311C95.9404 18.5309 95.9404 18.5307 95.9403 18.5305C95.9403 18.5302 95.9403 18.53 95.9402 18.5298C95.9402 18.5296 95.9402 18.5294 95.9402 18.5292C95.9401 18.529 95.9401 18.5287 95.9401 18.5285C95.94 18.5283 95.94 18.5281 95.94 18.5279C95.9399 18.5277 95.9399 18.5275 95.9399 18.5272C95.9398 18.527 95.9398 18.5268 95.9398 18.5266C95.9398 18.5264 95.9397 18.5262 95.9397 18.526C95.9397 18.5258 95.9396 18.5255 95.9396 18.5253C95.9396 18.5251 95.9395 18.5249 95.9395 18.5247C95.9395 18.5245 95.9395 18.5243 95.9394 18.524C95.9394 18.5238 95.9394 18.5236 95.9393 18.5234C95.9393 18.5232 95.9393 18.523 95.9392 18.5228C95.9392 18.5225 95.9392 18.5223 95.9391 18.5221C95.9391 18.5219 95.9391 18.5217 95.9391 18.5215C95.939 18.5213 95.939 18.5211 95.939 18.5208C95.9389 18.5206 95.9389 18.5204 95.9389 18.5202C95.9388 18.52 95.9388 18.5198 95.9388 18.5196C95.9388 18.5193 95.9387 18.5191 95.9387 18.5189C95.9387 18.5187 95.9386 18.5185 95.9386 18.5183C95.9386 18.5181 95.9385 18.5178 95.9385 18.5176C95.9385 18.5174 95.9384 18.5172 95.9384 18.517C95.9384 18.5168 95.9384 18.5166 95.9383 18.5164C95.9383 18.5161 95.9383 18.5159 95.9382 18.5157C95.9382 18.5155 95.9382 18.5153 95.9381 18.5151C95.9381 18.5149 95.9381 18.5146 95.938 18.5144C95.938 18.5142 95.938 18.514 95.938 18.5138C95.9379 18.5136 95.9379 18.5134 95.9379 18.5131C95.9378 18.5129 95.9378 18.5127 95.9378 18.5125C95.9377 18.5123 95.9377 18.5121 95.9377 18.5119C95.9377 18.5117 95.9376 18.5114 95.9376 18.5112C95.9376 18.511 95.9375 18.5108 95.9375 18.5106C95.9375 18.5104 95.9374 18.5102 95.9374 18.5099C95.9374 18.5097 95.9373 18.5095 95.9373 18.5093C95.9373 18.5091 95.9373 18.5089 95.9372 18.5087C95.9372 18.5084 95.9372 18.5082 95.9371 18.508C95.9371 18.5078 95.9371 18.5076 95.937 18.5074C95.937 18.5072 95.937 18.507 95.937 18.5067C95.9369 18.5065 95.9369 18.5063 95.9369 18.5061C95.9368 18.5059 95.9368 18.5057 95.9368 18.5055C95.9367 18.5052 95.9367 18.505 95.9367 18.5048C95.9366 18.5046 95.9366 18.5044 95.9366 18.5042C95.9366 18.504 95.9365 18.5037 95.9365 18.5035C95.9365 18.5033 95.9364 18.5031 95.9364 18.5029C95.9364 18.5027 95.9363 18.5025 95.9363 18.5023C95.9363 18.502 95.9362 18.5018 95.9362 18.5016C95.9362 18.5014 95.9362 18.5012 95.9361 18.501C95.9361 18.5008 95.9361 18.5005 95.936 18.5003C95.936 18.5001 95.936 18.4999 95.9359 18.4997C95.9359 18.4995 95.9359 18.4993 95.9359 18.4991C95.9358 18.4988 95.9358 18.4986 95.9358 18.4984C95.9357 18.4982 95.9357 18.498 95.9357 18.4978C95.9356 18.4976 95.9356 18.4973 95.9356 18.4971C95.9355 18.4969 95.9355 18.4967 95.9355 18.4965C95.9355 18.4963 95.9354 18.4961 95.9354 18.4958C95.9354 18.4956 95.9353 18.4954 95.9353 18.4952C95.9353 18.495 95.9352 18.4948 95.9352 18.4946C95.9352 18.4944 95.9352 18.4941 95.9351 18.4939C95.9351 18.4937 95.9351 18.4935 95.935 18.4933C95.935 18.4931 95.935 18.4929 95.9349 18.4926C95.9349 18.4924 95.9349 18.4922 95.9348 18.492C95.9348 18.4918 95.9348 18.4916 95.9348 18.4914C95.9347 18.4911 95.9347 18.4909 95.9347 18.4907C95.9346 18.4905 95.9346 18.4903 95.9346 18.4901C95.9345 18.4899 95.9345 18.4897 95.9345 18.4894C95.9344 18.4892 95.9344 18.489 95.9344 18.4888C95.9344 18.4886 95.9343 18.4884 95.9343 18.4882C95.9343 18.4879 95.9342 18.4877 95.9342 18.4875C95.9342 18.4873 95.9341 18.4871 95.9341 18.4869C95.9341 18.4867 95.9341 18.4864 95.934 18.4862C95.934 18.486 95.934 18.4858 95.9339 18.4856C95.9339 18.4854 95.9339 18.4852 95.9338 18.485C95.9338 18.4847 95.9338 18.4845 95.9337 18.4843C95.9337 18.4841 95.9337 18.4839 95.9337 18.4837C95.9336 18.4835 95.9336 18.4832 95.9336 18.483C95.9335 18.4828 95.9335 18.4826 95.9335 18.4824C95.9334 18.4822 95.9334 18.482 95.9334 18.4817C95.9333 18.4815 95.9333 18.4813 95.9333 18.4811C95.9333 18.4809 95.9332 18.4807 95.9332 18.4805C95.9332 18.4803 95.9331 18.48 95.9331 18.4798C95.9331 18.4796 95.933 18.4794 95.933 18.4792C95.933 18.479 95.933 18.4788 95.9329 18.4785C95.9329 18.4783 95.9329 18.4781 95.9328 18.4779C95.9328 18.4777 95.9328 18.4775 95.9327 18.4773C95.9327 18.477 95.9327 18.4768 95.9326 18.4766C95.9326 18.4764 95.9326 18.4762 95.9326 18.476C95.9325 18.4758 95.9325 18.4756 95.9325 18.4753C95.9324 18.4751 95.9324 18.4749 95.9324 18.4747C95.9323 18.4745 95.9323 18.4743 95.9323 18.4741C95.9323 18.4738 95.9322 18.4736 95.9322 18.4734C95.9322 18.4732 95.9321 18.473 95.9321 18.4728C95.9321 18.4726 95.932 18.4723 95.932 18.4721C95.932 18.4719 95.9319 18.4717 95.9319 18.4715C95.9319 18.4713 95.9319 18.4711 95.9318 18.4709C95.9318 18.4706 95.9318 18.4704 95.9317 18.4702C95.9317 18.47 95.9317 18.4698 95.9316 18.4696C95.9316 18.4694 95.9316 18.4691 95.9315 18.4689C95.9315 18.4687 95.9315 18.4685 95.9315 18.4683C95.9314 18.4681 95.9314 18.4679 95.9314 18.4676C95.9313 18.4674 95.9313 18.4672 95.9313 18.467C95.9312 18.4668 95.9312 18.4666 95.9312 18.4664C95.9312 18.4662 95.9311 18.4659 95.9311 18.4657C95.9311 18.4655 95.931 18.4653 95.931 18.4651C95.931 18.4649 95.9309 18.4647 95.9309 18.4644C95.9309 18.4642 95.9308 18.464 95.9308 18.4638C95.9308 18.4636 95.9308 18.4634 95.9307 18.4632C95.9307 18.4629 95.9307 18.4627 95.9306 18.4625C95.9306 18.4623 95.9306 18.4621 95.9305 18.4619C95.9305 18.4617 95.9305 18.4615 95.9305 18.4612C95.9304 18.461 95.9304 18.4608 95.9304 18.4606C95.9303 18.4604 95.9303 18.4602 95.9303 18.46C95.9302 18.4597 95.9302 18.4595 95.9302 18.4593C95.9301 18.4591 95.9301 18.4589 95.9301 18.4587C95.9301 18.4585 95.93 18.4582 95.93 18.458C95.93 18.4578 95.9299 18.4576 95.9299 18.4574C95.9299 18.4572 95.9298 18.457 95.9298 18.4568C95.9298 18.4565 95.9297 18.4563 95.9297 18.4561C95.9297 18.4559 95.9297 18.4557 95.9296 18.4555C95.9296 18.4553 95.9296 18.455 95.9295 18.4548C95.9295 18.4546 95.9295 18.4544 95.9294 18.4542C95.9294 18.454 95.9294 18.4538 95.9294 18.4535C95.9293 18.4533 95.9293 18.4531 95.9293 18.4529C95.9292 18.4527 95.9292 18.4525 95.9292 18.4523C95.9291 18.4521 95.9291 18.4518 95.9291 18.4516C95.929 18.4514 95.929 18.4512 95.929 18.451C95.929 18.4508 95.9289 18.4506 95.9289 18.4503C95.9289 18.4501 95.9288 18.4499 95.9288 18.4497C95.9288 18.4495 95.9287 18.4493 95.9287 18.4491C95.9287 18.4488 95.9286 18.4486 95.9286 18.4484C95.9286 18.4482 95.9286 18.448 95.9285 18.4478C95.9285 18.4476 95.9285 18.4474 95.9284 18.4471C95.9284 18.4469 95.9284 18.4467 95.9283 18.4465C95.9283 18.4463 95.9283 18.4461 95.9283 18.4459C95.9282 18.4456 95.9282 18.4454 95.9282 18.4452C95.9281 18.445 95.9281 18.4448 95.9281 18.4446C95.928 18.4444 95.928 18.4441 95.928 18.4439C95.9279 18.4437 95.9279 18.4435 95.9279 18.4433C95.9279 18.4431 95.9278 18.4429 95.9278 18.4427C95.9278 18.4424 95.9277 18.4422 95.9277 18.442C95.9277 18.4418 95.9276 18.4416 95.9276 18.4414C95.9276 18.4412 95.9276 18.4409 95.9275 18.4407C95.9275 18.4405 95.9275 18.4403 95.9274 18.4401C95.9274 18.4399 95.9274 18.4397 95.9273 18.4394C95.9273 18.4392 95.9273 18.439 95.9272 18.4388C95.9272 18.4386 95.9272 18.4384 95.9272 18.4382C95.9271 18.438 95.9271 18.4377 95.9271 18.4375C95.927 18.4373 95.927 18.4371 95.927 18.4369C95.9269 18.4367 95.9269 18.4365 95.9269 18.4362C95.9268 18.436 95.9268 18.4358 95.9268 18.4356C95.9268 18.4354 95.9267 18.4352 95.9267 18.435C95.9267 18.4347 95.9266 18.4345 95.9266 18.4343C95.9266 18.4341 95.9265 18.4339 95.9265 18.4337C95.9265 18.4335 95.9265 18.4333 95.9264 18.433C95.9264 18.4328 95.9264 18.4326 95.9263 18.4324C95.9263 18.4322 95.9263 18.432 95.9262 18.4318C95.9262 18.4315 95.9262 18.4313 95.9261 18.4311C95.9261 18.4309 95.9261 18.4307 95.9261 18.4305C95.926 18.4303 95.926 18.43 95.926 18.4298C95.9259 18.4296 95.9259 18.4294 95.9259 18.4292C95.9258 18.429 95.9258 18.4288 95.9258 18.4286C95.9258 18.4283 95.9257 18.4281 95.9257 18.4279C95.9257 18.4277 95.9256 18.4275 95.9256 18.4273C95.9256 18.4271 95.9255 18.4268 95.9255 18.4266C95.9255 18.4264 95.9254 18.4262 95.9254 18.426C95.9254 18.4258 95.9254 18.4256 95.9253 18.4254C95.9253 18.4251 95.9253 18.4249 95.9252 18.4247C95.9252 18.4245 95.9252 18.4243 95.9251 18.4241C95.9251 18.4239 95.9251 18.4236 95.925 18.4234C95.925 18.4232 95.925 18.423 95.925 18.4228C95.9249 18.4226 95.9249 18.4224 95.9249 18.4221C95.9248 18.4219 95.9248 18.4217 95.9248 18.4215C95.9247 18.4213 95.9247 18.4211 95.9247 18.4209C95.9247 18.4207 95.9246 18.4204 95.9246 18.4202C95.9246 18.42 95.9245 18.4198 95.9245 18.4196C95.9245 18.4194 95.9244 18.4192 95.9244 18.4189C95.9244 18.4187 95.9243 18.4185 95.9243 18.4183C95.9243 18.4181 95.9243 18.4179 95.9242 18.4177C95.9242 18.4174 95.9242 18.4172 95.9241 18.417C95.9241 18.4168 95.9241 18.4166 95.924 18.4164C95.924 18.4162 95.924 18.416 95.924 18.4157C95.9239 18.4155 95.9239 18.4153 95.9239 18.4151C95.9238 18.4149 95.9238 18.4147 95.9238 18.4145C95.9237 18.4142 95.9237 18.414 95.9237 18.4138C95.9236 18.4136 95.9236 18.4134 95.9236 18.4132C95.9236 18.413 95.9235 18.4127 95.9235 18.4125C95.9235 18.4123 95.9234 18.4121 95.9234 18.4119C95.9234 18.4117 95.9233 18.4115 95.9233 18.4113C95.9233 18.411 95.9232 18.4108 95.9232 18.4106C95.9232 18.4104 95.9232 18.4102 95.9231 18.41C95.9231 18.4098 95.9231 18.4095 95.923 18.4093C95.923 18.4091 95.923 18.4089 95.9229 18.4087C95.9229 18.4085 95.9229 18.4083 95.9229 18.408C95.9228 18.4078 95.9228 18.4076 95.9228 18.4074C95.9227 18.4072 95.9227 18.407 95.9227 18.4068C95.9226 18.4066 95.9226 18.4063 95.9226 18.4061C95.9225 18.4059 95.9225 18.4057 95.9225 18.4055C95.9225 18.4053 95.9224 18.4051 95.9224 18.4048C95.9224 18.4046 95.9223 18.4044 95.9223 18.4042C95.9223 18.404 95.9222 18.4038 95.9222 18.4036C95.9222 18.4033 95.9221 18.4031 95.9221 18.4029C95.9221 18.4027 95.9221 18.4025 95.922 18.4023C95.922 18.4021 95.922 18.4019 95.9219 18.4016C95.9219 18.4014 95.9219 18.4012 95.9218 18.401C95.9218 18.4008 95.9218 18.4006 95.9218 18.4004C95.9217 18.4001 95.9217 18.3999 95.9217 18.3997C95.9216 18.3995 95.9216 18.3993 95.9216 18.3991C95.9215 18.3989 95.9215 18.3986 95.9215 18.3984C95.9214 18.3982 95.9214 18.398 95.9214 18.3978C95.9214 18.3976 95.9213 18.3974 95.9213 18.3972C95.9213 18.3969 95.9212 18.3967 95.9212 18.3965C95.9212 18.3963 95.9211 18.3961 95.9211 18.3959C95.9211 18.3957 95.9211 18.3954 95.921 18.3952C95.921 18.395 95.921 18.3948 95.9209 18.3946C95.9209 18.3944 95.9209 18.3942 95.9208 18.3939C95.9208 18.3937 95.9208 18.3935 95.9207 18.3933C95.9207 18.3931 95.9207 18.3929 95.9207 18.3927C95.9206 18.3925 95.9206 18.3922 95.9206 18.392C95.9205 18.3918 95.9205 18.3916 95.9205 18.3914C95.9204 18.3912 95.9204 18.391 95.9204 18.3907C95.9203 18.3905 95.9203 18.3903 95.9203 18.3901C95.9203 18.3899 95.9202 18.3897 95.9202 18.3895C95.9202 18.3892 95.9201 18.389 95.9201 18.3888C95.9201 18.3886 95.92 18.3884 95.92 18.3882C95.92 18.388 95.92 18.3878 95.9199 18.3875C95.9199 18.3873 95.9199 18.3871 95.9198 18.3869C95.9198 18.3867 95.9198 18.3865 95.9197 18.3863C95.9197 18.386 95.9197 18.3858 95.9196 18.3856C95.9196 18.3854 95.9196 18.3852 95.9196 18.385C95.9195 18.3848 95.9195 18.3845 95.9195 18.3843C95.9194 18.3841 95.9194 18.3839 95.9194 18.3837C95.9193 18.3835 95.9193 18.3833 95.9193 18.3831C95.9193 18.3828 95.9192 18.3826 95.9192 18.3824C95.9192 18.3822 95.9191 18.382 95.9191 18.3818C95.9191 18.3816 95.919 18.3813 95.919 18.3811C95.919 18.3809 95.9189 18.3807 95.9189 18.3805C95.9189 18.3803 95.9189 18.3801 95.9188 18.3798C95.9188 18.3796 95.9188 18.3794 95.9187 18.3792C95.9187 18.379 95.9187 18.3788 95.9186 18.3786C95.9186 18.3784 95.9186 18.3781 95.9185 18.3779C95.9185 18.3777 95.9185 18.3775 95.9185 18.3773C95.9184 18.3771 95.9184 18.3769 95.9184 18.3766C95.9183 18.3764 95.9183 18.3762 95.9183 18.376C95.9182 18.3758 95.9182 18.3756 95.9182 18.3754C95.9182 18.3751 95.9181 18.3749 95.9181 18.3747C95.9181 18.3745 95.918 18.3743 95.918 18.3741C95.918 18.3739 95.9179 18.3737 95.9179 18.3734C95.9179 18.3732 95.9178 18.373 95.9178 18.3728C95.9178 18.3726 95.9178 18.3724 95.9177 18.3722C95.9177 18.3719 95.9177 18.3717 95.9176 18.3715C95.9176 18.3713 95.9176 18.3711 95.9175 18.3709C95.9175 18.3707 95.9175 18.3704 95.9174 18.3702C95.9174 18.37 95.9174 18.3698 95.9174 18.3696C95.9173 18.3694 95.9173 18.3692 95.9173 18.369C95.9172 18.3687 95.9172 18.3685 95.9172 18.3683C95.9171 18.3681 95.9171 18.3679 95.9171 18.3677C95.9171 18.3675 95.917 18.3672 95.917 18.367C95.917 18.3668 95.9169 18.3666 95.9169 18.3664C95.9169 18.3662 95.9168 18.366 95.9168 18.3657C95.9168 18.3655 95.9167 18.3653 95.9167 18.3651C95.9167 18.3649 95.9167 18.3647 95.9166 18.3645C95.9166 18.3643 95.9166 18.364 95.9165 18.3638C95.9165 18.3636 95.9165 18.3634 95.9164 18.3632C95.9164 18.363 95.9164 18.3628 95.9164 18.3625C95.9163 18.3623 95.9163 18.3621 95.9163 18.3619C95.9162 18.3617 95.9162 18.3615 95.9162 18.3613C95.9161 18.361 95.9161 18.3608 95.9161 18.3606C95.916 18.3604 95.916 18.3602 95.916 18.36C95.916 18.3598 95.9159 18.3596 95.9159 18.3593C95.9159 18.3591 95.9158 18.3589 95.9158 18.3587C95.9158 18.3585 95.9157 18.3583 95.9157 18.3581C95.9157 18.3578 95.9156 18.3576 95.9156 18.3574C95.9156 18.3572 95.9156 18.357 95.9155 18.3568C95.9155 18.3566 95.9155 18.3563 95.9154 18.3561C95.9154 18.3559 95.9154 18.3557 95.9153 18.3555C95.9153 18.3553 95.9153 18.3551 95.9153 18.3549C95.9152 18.3546 95.9152 18.3544 95.9152 18.3542C95.9151 18.354 95.9151 18.3538 95.9151 18.3536C95.915 18.3534 95.915 18.3531 95.915 18.3529C95.9149 18.3527 95.9149 18.3525 95.9149 18.3523C95.9149 18.3521 95.9148 18.3519 95.9148 18.3517C95.9148 18.3514 95.9147 18.3512 95.9147 18.351C95.9147 18.3508 95.9146 18.3506 95.9146 18.3504L92.9448 18.7746ZM92.997 19.1372C92.9972 19.1384 93 19.1565 93 19.1953H96C96 19.0154 95.9872 18.8304 95.9562 18.644L92.997 19.1372ZM93 19.1953C93 20.6092 92.8146 21.9638 92.4472 23.2639L95.3341 24.0798C95.7792 22.5049 96 20.8752 96 19.1953H93ZM92.4442 23.2745C92.0879 24.5716 91.5763 25.7854 90.9098 26.9199L93.4964 28.4395C94.2987 27.074 94.9121 25.6159 95.337 24.0692L92.4442 23.2745ZM90.9098 26.9199C90.2393 28.0612 89.4422 29.0927 88.5175 30.0175L90.6388 32.1388C91.7453 31.0323 92.6982 29.7982 93.4964 28.4395L90.9098 26.9199ZM88.5175 30.0175C87.5927 30.9422 86.5612 31.7393 85.4199 32.4098L86.9395 34.9964C88.2982 34.1982 89.5323 33.2453 90.6388 32.1388L88.5175 30.0175ZM85.4199 32.4098C84.2836 33.0774 83.0585 33.5981 81.7405 33.9706L82.5564 36.8575C84.1133 36.4175 85.5758 35.7976 86.9395 34.9964L85.4199 32.4098ZM81.7511 33.9677C80.4649 34.321 79.1145 34.5 77.6953 34.5V37.5C79.3699 37.5 80.9883 37.2884 82.5458 36.8605L81.7511 33.9677ZM77.6953 34.5C76.2762 34.5 74.9165 34.321 73.6121 33.9666L72.8254 36.8616C74.396 37.2884 76.0207 37.5 77.6953 37.5V34.5ZM73.6308 33.9718C72.3282 33.5996 71.1094 33.0788 69.9708 32.4098L68.4511 34.9964C69.8125 35.7962 71.2655 36.416 72.8067 36.8563L73.6308 33.9718ZM69.9708 32.4098C68.8295 31.7393 67.7979 30.9422 66.8732 30.0175L64.7518 32.1388C65.8583 33.2453 67.0924 34.1982 68.4511 34.9964L69.9708 32.4098ZM66.8732 30.0175C65.9484 29.0927 65.1513 28.0612 64.4808 26.9199L61.8942 28.4395C62.6924 29.7982 63.6454 31.0323 64.7518 32.1388L66.8732 30.0175ZM64.4808 26.9199C63.8119 25.7812 63.291 24.5624 62.9188 23.2598L60.0343 24.084C60.4746 25.6251 61.0944 27.0782 61.8942 28.4395L64.4808 26.9199ZM62.9241 23.2785C62.5696 21.9741 62.3906 20.6145 62.3906 19.1953H59.3906C59.3906 20.8699 59.6023 22.4947 60.0291 24.0652L62.9241 23.2785ZM62.3906 19.1953C62.3906 17.7761 62.5696 16.4258 62.923 15.1396L60.0302 14.3448C59.6023 15.9024 59.3906 17.5208 59.3906 19.1953H62.3906ZM62.92 15.1501C63.2925 13.8321 63.8133 12.607 64.4808 11.4708L61.8942 9.95111C61.093 11.3148 60.4731 12.7773 60.0331 14.3343L62.92 15.1501ZM64.4808 11.4708C65.1513 10.3295 65.9484 9.29794 66.8732 8.37316L64.7518 6.25184C63.6454 7.35831 62.6924 8.59241 61.8942 9.95111L64.4808 11.4708ZM66.8732 8.37316C67.7979 7.44838 68.8295 6.65133 69.9708 5.98082L68.4511 3.39418C67.0924 4.19242 65.8583 5.14537 64.7518 6.25184L66.8732 8.37316ZM69.9708 5.98082C71.1052 5.31431 72.3191 4.80274 73.6161 4.44641L72.8214 1.55359C71.2747 1.97851 69.8166 2.59194 68.4511 3.39418L69.9708 5.98082ZM73.6267 4.44346C74.9268 4.07604 76.2814 3.89062 77.6953 3.89062V0.890625C76.0154 0.890625 74.3857 1.11146 72.8108 1.55654L73.6267 4.44346ZM77.6953 3.89062C79.8607 3.89062 81.8588 4.29817 83.7062 5.102L84.9032 2.35112C82.6568 1.37371 80.2487 0.890625 77.6953 0.890625V3.89062ZM83.7062 5.102C85.5797 5.91717 87.2073 7.03443 88.6006 8.45614L90.7432 6.35636C89.074 4.65307 87.1235 3.31721 84.9032 2.35112L83.7062 5.102ZM88.6809 6.28018L88.095 6.7958L90.0769 9.04795L90.6628 8.53232L88.6809 6.28018ZM88.1012 6.79042L84.3043 10.0951L86.2738 12.358L90.0707 9.05333L88.1012 6.79042ZM86.324 10.1408C85.19 9.05991 83.8876 8.21053 82.4266 7.59442L81.2609 10.3587C82.3936 10.8363 83.3882 11.487 84.2542 12.3124L86.324 10.1408ZM82.4326 7.59698C80.9532 6.96553 79.3686 6.65625 77.6953 6.65625V9.65625C78.9907 9.65625 80.1718 9.89384 81.2549 10.3561L82.4326 7.59698ZM77.6953 6.65625C75.9834 6.65625 74.3512 6.98394 72.8134 7.64555L73.9991 10.4013C75.1488 9.90668 76.376 9.65625 77.6953 9.65625V6.65625ZM72.8134 7.64555C71.3012 8.29618 69.969 9.1909 68.83 10.33L70.9513 12.4513C71.8122 11.5904 72.8238 10.9069 73.9991 10.4013L72.8134 7.64555ZM68.83 10.33C67.6909 11.469 66.7962 12.8012 66.1455 14.3134L68.9013 15.4991C69.4069 14.3238 70.0903 13.3122 70.9513 12.4513L68.83 10.33ZM66.1481 14.3076C65.4831 15.8353 65.1562 17.47 65.1562 19.1953H68.1562C68.1562 17.8581 68.4075 16.6335 68.8988 15.5049L66.1481 14.3076ZM65.1562 19.1953C65.1562 20.9073 65.4839 22.5394 66.1455 24.0772L68.9013 22.8916C68.4067 21.7419 68.1562 20.5146 68.1562 19.1953H65.1562ZM66.1455 24.0772C66.7962 25.5895 67.6909 26.9216 68.83 28.0607L70.9513 25.9393C70.0903 25.0784 69.4069 24.0668 68.9013 22.8916L66.1455 24.0772ZM68.83 28.0607C69.969 29.1997 71.3012 30.0944 72.8134 30.7451L73.9991 27.9893C72.8238 27.4837 71.8122 26.8003 70.9513 25.9393L68.83 28.0607ZM72.8134 30.7451C74.3512 31.4067 75.9834 31.7344 77.6953 31.7344V28.7344C76.376 28.7344 75.1488 28.4839 73.9991 27.9893L72.8134 30.7451ZM77.6953 31.7344C78.8782 31.7344 80.0217 31.5752 81.1198 31.2512L80.2708 28.3738C79.4627 28.6123 78.6062 28.7344 77.6953 28.7344V31.7344ZM81.1348 31.2467C82.223 30.9132 83.2408 30.454 84.1835 29.8671L82.5978 27.3204C81.8842 27.7647 81.1051 28.1181 80.2558 28.3783L81.1348 31.2467ZM84.1728 29.8737C85.1352 29.2855 85.9953 28.5784 86.7484 27.7536L84.5329 25.7308C83.9735 26.3435 83.3335 26.8707 82.6085 27.3138L84.1728 29.8737ZM86.7364 27.7665C87.4941 26.9559 88.1388 26.0641 88.6684 25.0933L86.0347 23.6567C85.6268 24.4046 85.1309 25.0909 84.5448 25.7179L86.7364 27.7665ZM87.3516 22.875H77.6953V25.875H87.3516V22.875ZM79.1953 24.375V22.1016H76.1953V24.375H79.1953ZM79.1953 22.1016V18.5625H76.1953V22.1016H79.1953ZM77.6953 20.0625H91.4297V17.0625H77.6953V20.0625ZM91.4297 20.0625H94.4297V17.0625H91.4297V20.0625ZM118.289 2.39062H119.789V0.890625H118.289V2.39062ZM118.289 8.64844V10.1484H119.789V8.64844H118.289ZM104.367 8.64844V7.14844H102.867V8.64844H104.367ZM104.367 16.1484H102.867V17.6484H104.367V16.1484ZM118.289 16.1484H119.789V14.6484H118.289V16.1484ZM118.289 22.2422V23.7422H119.789V22.2422H118.289ZM104.367 22.2422V20.7422H102.867V22.2422H104.367ZM104.367 29.7422H102.867V31.2422H104.367V29.7422ZM118.289 29.7422H119.789V28.2422H118.289V29.7422ZM118.289 36V37.5H119.789V36H118.289ZM98.1094 36H96.6094V37.5H98.1094V36ZM98.1094 2.39062V0.890625H96.6094V2.39062H98.1094ZM116.789 2.39062V8.64844H119.789V2.39062H116.789ZM118.289 7.14844H104.367V10.1484H118.289V7.14844ZM102.867 8.64844V16.1484H105.867V8.64844H102.867ZM104.367 17.6484H118.289V14.6484H104.367V17.6484ZM116.789 16.1484V22.2422H119.789V16.1484H116.789ZM118.289 20.7422H104.367V23.7422H118.289V20.7422ZM102.867 22.2422V29.7422H105.867V22.2422H102.867ZM104.367 31.2422H118.289V28.2422H104.367V31.2422ZM116.789 29.7422V36H119.789V29.7422H116.789ZM118.289 34.5H98.1094V37.5H118.289V34.5ZM99.6094 36V2.39062H96.6094V36H99.6094ZM98.1094 3.89062H118.289V0.890625H98.1094V3.89062ZM150.023 2.39062H151.523V0.890625H150.023V2.39062ZM150.023 36V37.5H151.523V36H150.023ZM143.906 36L142.654 36.8259L143.099 37.5H143.906V36ZM129.375 13.9688L130.627 13.1429L127.875 8.97023V13.9688H129.375ZM129.375 36V37.5H130.875V36H129.375ZM123.141 36H121.641V37.5H123.141V36ZM123.141 2.39062V0.890625H121.641V2.39062H123.141ZM129.234 2.39062L130.494 1.57553L130.05 0.890625H129.234V2.39062ZM143.602 24.5859L142.342 25.401L145.102 29.6636V24.5859H143.602ZM143.602 2.39062V0.890625H142.102V2.39062H143.602ZM148.523 2.39062V36H151.523V2.39062H148.523ZM150.023 34.5H143.906V37.5H150.023V34.5ZM145.158 35.1741L130.627 13.1429L128.123 14.7946L142.654 36.8259L145.158 35.1741ZM127.875 13.9688V36H130.875V13.9688H127.875ZM129.375 34.5H123.141V37.5H129.375V34.5ZM124.641 36V2.39062H121.641V36H124.641ZM123.141 3.89062H129.234V0.890625H123.141V3.89062ZM127.975 3.20572L142.342 25.401L144.861 23.7708L130.494 1.57553L127.975 3.20572ZM145.102 24.5859V2.39062H142.102V24.5859H145.102ZM143.602 3.89062H150.023V0.890625H143.602V3.89062Z" fill="url(#paint0_linear)"/>
</g>
<defs>
<linearGradient id="paint0_linear" x1="3" y1="16.2219" x2="157.245" y2="16.2219" gradientUnits="userSpaceOnUse">
<stop stop-color="#FFB7C5"/>
<stop offset="1" stop-color="#FF5C7C"/>
</linearGradient>
<clipPath id="clip0">
<rect width="154" height="38" fill="white"/>
</clipPath>
</defs>
</svg>
